<?xml version="1.0" encoding="UTF-8" standalone="no"?>
<!-- Created with Inkscape (http://www.inkscape.org/) -->

<svg
   width="66.960808mm"
   height="5.7573524mm"
   viewBox="0 0 66.960808 5.7573524"
   version="1.1"
   id="svg1"
   xmlns="http://www.w3.org/2000/svg"
   xmlns:svg="http://www.w3.org/2000/svg">
  <defs
     id="defs1" />
  <path
     d="M 2.3577761,0.08466876 H 1.5696034 1.4673571e-6 V 5.6726699 H 1.5696034 V 3.894671 h 0.7881727 c 1.2395205,0 1.8660108,-0.6519344 1.8660108,-1.8541991 0,-1.30386875 -0.6264903,-1.95580314 -1.8660108,-1.95580314 z M 2.1017924,2.5400058 H 1.5696034 V 1.4901304 h 0.532189 c 0.3839756,0 0.5523925,0.160876 0.5523925,0.5249377 0,0.364073 -0.1684169,0.5249377 -0.5523925,0.5249377 z M 7.5111951,5.6726699 H 9.2155324 L 8.1646325,3.6067984 C 8.6968214,3.3274011 8.9662743,2.7770708 8.9662743,1.9558075 8.9662743,0.71119933 8.353253,0.08466876 7.1676356,0.08466876 H 6.2918872 4.7559669 V 5.6726699 H 6.2918872 V 3.8184708 H 6.7230224 Z M 6.2918872,1.4901304 h 0.5591271 c 0.3974536,0 0.545658,0.1439364 0.545658,0.5164735 0,0.3810014 -0.1482044,0.5164623 -0.545658,0.5164623 H 6.2918872 Z M 11.580042,4.2832804e-6 C 10.172113,4.2832804e-6 9.3165772,1.0498684 9.3165772,2.8786749 c 0,1.8287953 0.8555358,2.8786594 2.2634648,2.8786594 1.414663,0 2.25672,-1.0498641 2.25672,-2.8786594 0,-1.8288065 -0.842057,-2.8786706167196 -2.25672,-2.8786706167196 z m 0,1.4816619167196 c 0.458082,0 0.653437,0.4233336 0.653437,1.3970087 0,0.9736639 -0.195355,1.3969975 -0.653437,1.3969975 -0.458083,0 -0.660181,-0.4233336 -0.660181,-1.3969975 0,-0.9736751 0.202098,-1.3970087 0.660181,-1.3970087 z M 18.3637,5.6726699 16.821036,2.8363315 18.235699,0.08466876 H 16.524628 L 15.999182,1.4816662 15.480471,0.08466876 h -1.852533 l 1.421398,2.80247034 -1.475292,2.7855308 h 1.771701 l 0.538923,-1.4478052 0.586074,1.4478052 z M 20.209498,0.08466876 H 18.639896 V 5.6726699 h 1.569602 z m 6.386205,0 H 24.50739 l -0.511976,2.48072964 -0.195355,1.0414 h -0.01347 l -0.195355,-1.0414 -0.511977,-2.48072964 H 20.883157 V 5.6726699 h 1.374247 V 3.7338063 l -0.02016,-1.8796029 h 0.02694 l 0.848793,3.8184665 h 1.252989 l 0.862271,-3.8184665 h 0.02025 l -0.02025,1.8796029 v 1.9388636 h 1.367512 z m 4.870489,0 H 29.89659 V 3.420541 c 0,0.5672587 -0.202099,0.8551314 -0.57934,0.8551314 -0.370507,0 -0.572605,-0.2878727 -0.572605,-0.8551314 V 0.08466876 H 27.168308 V 3.2681405 c 0,1.6679305 0.714066,2.4891938 2.148942,2.4891938 1.434875,0 2.148942,-0.8212633 2.148942,-2.4891938 z M 33.972171,2.6705016e-5 c -1.340566,0 -2.081579,0.778931104984 -2.081579,1.921935194984 0,1.380069 1.057626,1.6255982 1.778435,1.786463 0.377241,0.084642 0.660181,0.1524005 0.660181,0.3471333 0,0.1439363 -0.114523,0.2540046 -0.491773,0.2540046 -0.57933,0 -1.017209,-0.2116724 -1.39445,-0.6773382 l -0.67365,1.3377368 c 0.545658,0.4995339 1.057625,0.7873954 2.182623,0.7873954 1.091316,0 1.987268,-0.6180664 1.987268,-1.8034027 0,-1.0667926 -0.525445,-1.6171341 -1.832329,-1.9134597 -0.350294,-0.076234 -0.606287,-0.127008 -0.606287,-0.2709331 0,-0.1862686 0.202099,-0.3217407 0.518711,-0.3217407 0.505242,0 0.902696,0.1947328 1.313618,0.668874 L 36.020067,0.88902612 C 35.393568,0.20322369 34.820972,2.6705016e-5 33.972171,2.6705016e-5 Z M 40.863608,0.08466876 V 2.1420648 H 39.644301 V 0.08466876 H 38.074699 V 5.6726699 h 1.569602 V 3.58987 h 1.219307 V 5.6726699 H 42.43321 V 0.08466876 Z m 5.01195,5.58800114 H 47.47885 L 46.030497,0.08466876 h -1.886215 l -1.44161,5.58800114 h 1.562868 l 0.208824,-1.0668038 h 1.199104 z M 44.710144,3.3781976 44.89203,2.4638055 45.067181,1.5155343 h 0.02016 l 0.357038,1.8626633 z m 3.038159,2.2944723 h 2.721547 c 1.084572,0 1.603283,-0.4910697 1.603283,-1.4731978 0,-0.7196704 -0.343559,-1.2276685 -1.118254,-1.3292726 v -0.00897 c 0.687119,-0.1185325 1.003731,-0.6180664 1.003731,-1.2869292 0,-0.99060347 -0.538914,-1.48167313 -1.663912,-1.49013733 H 47.748303 Z M 49.250542,2.2521331 V 1.439334 h 0.687119 c 0.282939,0 0.417666,0.1354721 0.417666,0.4064052 0,0.270933 -0.134727,0.4063939 -0.417666,0.4063939 z m 0,2.1336076 V 3.5729415 h 0.801641 c 0.282931,0 0.417667,0.135461 0.417667,0.3979298 0,0.2793973 -0.134736,0.4148694 -0.417667,0.4148694 z M 54.060401,0.08466876 H 52.490799 V 5.6726699 h 1.569602 z m 4.823338,0 H 57.496014 54.531961 V 1.5324739 h 1.394451 v 4.140196 h 1.569602 v -4.140196 h 1.387725 z M 61.531197,5.6726699 H 63.13448 L 61.686135,0.08466876 h -1.886223 l -1.44161,5.58800114 h 1.562868 l 0.208833,-1.0668038 h 1.199095 z M 60.365783,3.3781976 60.547669,2.4638055 60.722811,1.5155343 h 0.02025 l 0.357037,1.8626633 z m 6.59502,-3.29352884 H 65.573087 62.609026 V 1.5324739 h 1.394459 v 4.140196 h 1.569602 v -4.140196 h 1.387716 z"
     id="text15"
     style="font-weight:900;font-size:7.5522px;line-height:0.7;font-family:'Work Sans';-inkscape-font-specification:'Work Sans Heavy';letter-spacing:0px;fill-rule:evenodd;stroke-width:0.236006;stroke-linecap:round;stroke-linejoin:round"
     aria-label="PROXIMUS HABITAT" />
</svg>
