<?xml version="1.0" encoding="UTF-8" standalone="no"?>
<!-- Created with Inkscape (http://www.inkscape.org/) -->

<svg
   width="28.131617mm"
   height="11.564669mm"
   viewBox="0 0 28.131617 11.564669"
   version="1.1"
   id="svg1"
   xmlns="http://www.w3.org/2000/svg"
   xmlns:svg="http://www.w3.org/2000/svg">
  <defs
     id="defs1" />
  <g
     id="layer1"
     transform="translate(-22.370728,-204.07385)">
    <path
       id="path33"
       style="font-weight:800;font-size:15.5222px;line-height:1;font-family:'Plus Jakarta Sans';-inkscape-font-specification:'Plus Jakarta Sans Ultra-Bold';letter-spacing:0px;display:inline;stroke-width:0.07;stroke-linecap:round;stroke-linejoin:round;paint-order:fill markers stroke"
       d="m 22.664766,204.07385 c -9.13e-4,0 -0.0017,5.1e-4 -0.0026,5.2e-4 h -0.291455 v 0.29352 0.24236 0.25063 5.2e-4 0.41444 h 0.879532 v -5.1e-4 h 6.472474 c 0.162359,0 0.205129,-0.0975 0.08372,-0.20516 -0.0099,-0.009 -0.01994,-0.0177 -0.02997,-0.0263 -0.122702,-0.10626 -0.09828,-0.18294 0.06408,-0.18294 h 6.381006 c 0.16236,0 0.294039,0.13168 0.294039,0.29404 0,0.0665 0.131679,0.12041 0.294038,0.12041 h 1.817977 c 0.16236,0 0.294039,-0.13168 0.294039,-0.29404 0,-0.0665 0.131679,-0.12041 0.294039,-0.12041 h 3.913456 c 0.16236,0 0.294039,0.13168 0.294039,0.29404 0,0.0665 0.131679,0.12041 0.294039,0.12041 h 1.81746 c 0.16236,0 0.294039,-0.13168 0.294039,-0.29404 0,-0.0665 0.131679,-0.12041 0.294039,-0.12041 h 3.213757 v 5.2e-4 h 1.165304 v -0.25115 -5.2e-4 h -4.379061 c -0.16236,0 -0.294039,-0.13168 -0.294039,-0.29404 0,-0.1336 -0.131679,-0.24184 -0.294039,-0.24184 h -1.81746 c -0.16236,0 -0.294039,0.13168 -0.294039,0.29404 0,0.1336 -0.131679,0.24184 -0.294039,0.24184 h -3.913456 c -0.16236,0 -0.294039,-0.13168 -0.294039,-0.29404 0,-0.1336 -0.131679,-0.24184 -0.294039,-0.24184 H 36.80963 c -0.162359,0 -0.294038,0.13168 -0.294038,0.29404 0,0.1336 -0.131679,0.24184 -0.294039,0.24184 H 29.41835 c -0.162359,0 -0.379138,-0.0637 -0.497127,-0.11679 v 5.2e-4 c -0.737,-0.28717 -1.252058,-0.38692 -1.816943,-0.41238 -0.162183,-0.007 -0.425718,-0.007 -0.588078,-0.007 z m -0.294038,1.45314 v 0.29404 0.003 0.29352 0.25115 5.2e-4 0.41341 h 0.289904 c 0.0015,10e-6 0.0027,5.1e-4 0.0041,5.1e-4 h 1.817977 c 0.16236,0 0.294039,-0.13168 0.294039,-0.29404 0,-0.0662 0.131679,-0.11988 0.294039,-0.11988 h 2.338875 l 0.300757,0.003 c 0.248479,0.17646 0.256705,0.18441 0.2651,0.19224 0.118525,0.11058 0.327016,0.2191 0.489376,0.2191 h 2.040703 c 0.162359,0 0.264372,-0.12824 0.212906,-0.28215 -0.02434,-0.0728 0.08672,-0.13178 0.249081,-0.13177 l 5.253943,5.1e-4 c 0.16236,1e-5 0.294039,0.13168 0.294039,0.29404 0,0.0662 0.131679,0.11989 0.294038,0.11989 h 1.817977 c 0.16236,0 0.294039,-0.13168 0.294039,-0.29404 0,-0.0662 0.131679,-0.11989 0.294039,-0.11989 h 3.913456 c 0.16236,0 0.294039,0.13168 0.294039,0.29404 0,0.0662 0.131679,0.11989 0.294039,0.11989 h 1.81746 c 0.16236,0 0.294039,-0.13168 0.294039,-0.29404 0,-0.0662 0.131679,-0.11989 0.294039,-0.11989 h 3.213757 0.871265 0.294039 V 206.119 h -1.165304 -3.213757 c -0.16236,0 -0.294039,-0.13167 -0.294039,-0.29403 v -0.003 c 0,-0.16236 -0.131679,-0.29353 -0.294039,-0.29353 h -1.81746 c -0.16236,0 -0.294039,0.13117 -0.294039,0.29353 v 0.003 c 0,0.16236 -0.131679,0.29403 -0.294039,0.29403 H 39.21566 c -0.16236,0 -0.294039,-0.13167 -0.294039,-0.29403 v -0.003 c 0,-0.16236 -0.131679,-0.29353 -0.294039,-0.29353 h -1.817977 c -0.162359,0 -0.294038,0.13117 -0.294038,0.29353 v 0.003 c 0,0.16236 -0.131679,0.29403 -0.294039,0.29403 h -5.352645 c -0.16236,0 -0.343967,-0.12203 -0.420646,-0.2651 -0.03537,-0.066 -0.137462,-0.21101 -0.224276,-0.32556 l -6.973735,-5.1e-4 v -5.2e-4 z m 0,1.50688 v 0.29404 0.003 0.29353 0.25114 0.41393 h 0.294038 0.585494 1.232483 c 0.16236,0 0.294039,-0.13116 0.294039,-0.29352 0,-0.0662 0.131679,-0.12041 0.294039,-0.12041 h 3.127458 c 0.16236,0 0.287537,0.13275 0.249597,0.29043 -0.01661,0.069 0.09654,0.1235 0.258899,0.1235 h 1.875854 c 0.16236,0 0.308235,-0.13081 0.31471,-0.293 0.0027,-0.0667 0.135813,-0.12093 0.298173,-0.12093 h 5.02605 c 0.16236,0 0.294039,0.13168 0.294039,0.29404 0,0.0662 0.131679,0.11989 0.294038,0.11989 h 1.817977 c 0.16236,0 0.294039,-0.13116 0.294039,-0.29352 0,-0.0662 0.131679,-0.12041 0.294039,-0.12041 h 3.913456 c 0.16236,0 0.294039,0.13168 0.294039,0.29404 0,0.0662 0.131679,0.11989 0.294039,0.11989 h 1.81746 c 0.16236,0 0.294039,-0.13116 0.294039,-0.29352 0,-0.0662 0.131679,-0.12041 0.294039,-0.12041 h 3.213757 0.871265 0.294039 v -0.25114 h -1.165304 -3.213757 c -0.16236,0 -0.294039,-0.13117 -0.294039,-0.29353 v -0.003 c 0,-0.16236 -0.131679,-0.29404 -0.294039,-0.29404 h -1.81746 c -0.16236,0 -0.294039,0.13168 -0.294039,0.29404 v 0.003 c 0,0.16236 -0.131679,0.29353 -0.294039,0.29353 h -3.913456 c -0.16236,0 -0.294039,-0.13117 -0.294039,-0.29353 v -0.003 c 0,-0.16236 -0.131679,-0.29404 -0.294039,-0.29404 h -1.817977 c -0.162359,0 -0.294038,0.13168 -0.294038,0.29404 v 0.003 c 0,0.16236 -0.131679,0.29353 -0.294039,0.29353 h -5.031218 c -0.16236,0 -0.297529,-0.13167 -0.310058,-0.29353 -1.33e-4,-0.002 -3.82e-4,-0.003 -5.17e-4,-0.005 -0.01269,-0.16181 -0.164752,-0.29197 -0.327112,-0.29197 h -1.930631 c -0.16236,0 -0.232251,0.11776 -0.190686,0.2744 0.0023,0.009 0.0045,0.0177 0.0067,0.0264 0.03898,0.15744 -0.08465,0.2899 -0.247013,0.2899 h -3.120223 c -0.16236,0 -0.294039,-0.13168 -0.294039,-0.29404 v -0.003 c 0,-0.16236 -0.131679,-0.29404 -0.294039,-0.29404 H 23.25026 22.664766 Z m 0,1.50689 v 0.29404 0.003 0.29352 0.25115 0.41444 h 0.294038 0.585494 6.800619 c 0.16236,0 0.295548,-0.0258 0.313676,-0.0258 0.170915,-0.33022 0.328566,-0.38809 0.490926,-0.38809 h 5.366081 c 0.16236,0 0.294039,0.13167 0.294039,0.29403 0,0.0665 0.131679,0.12041 0.294038,0.12041 h 8.725049 c 0.16236,0 0.294039,-0.13168 0.294039,-0.29404 0,-0.0665 0.131679,-0.1204 0.294039,-0.1204 h 4.085022 c 0.0011,0 0.002,-5.1e-4 0.0031,-5.2e-4 h 0.290938 v -0.25063 -5.2e-4 h -1.165304 v 5.2e-4 h -3.213757 c -0.16236,0 -0.294039,-0.13168 -0.294039,-0.29404 v -0.003 c 0,-0.16236 -0.131679,-0.29404 -0.294039,-0.29404 h -1.81746 c -0.16236,0 -0.294039,0.13168 -0.294039,0.29404 0,0.13132 -0.131679,0.23771 -0.294039,0.23771 h -3.913456 c -0.16236,0 -0.294039,-0.13168 -0.294039,-0.29404 0,-0.13132 -0.131679,-0.23771 -0.294039,-0.23771 h -1.817977 c -0.162359,0 -0.294038,0.13168 -0.294038,0.29404 v 0.003 c 0,0.16236 -0.131679,0.29404 -0.294039,0.29404 h -5.253426 c -0.16236,0 -0.248584,-0.12368 -0.205156,-0.28009 0.0022,-0.008 0.0046,-0.0163 0.0067,-0.0243 0.04236,-0.15667 -0.06708,-0.2868 -0.229443,-0.2868 h -1.939934 c -0.162359,0 -0.346152,0.0506 -0.315743,0.0506 -0.213133,0.28618 -0.259058,0.33097 -0.307991,0.37259 -0.12351,0.10507 -0.372491,0.16743 -0.534851,0.16743 h -2.370915 c -0.16236,0 -0.294039,-0.13116 -0.294039,-0.29352 v -0.003 c 0,-0.16236 -0.131679,-0.29404 -0.294039,-0.29404 H 23.25026 22.664766 Z m 0.294038,1.50688 c -9.13e-4,0 -0.0017,5.1e-4 -0.0026,5.2e-4 h -0.291455 v 0.29352 5.2e-4 0.002 0.29404 0.25114 0.41445 h 0.294038 0.585494 4.52944 c 0.16236,0 0.42244,-0.0293 0.578259,-0.0749 0.09358,-0.0274 0.185851,-0.057 0.275952,-0.0899 0.152467,-0.0556 0.389398,-0.17018 0.5302,-0.25011 h 7.057451 c 0.16236,0 0.294039,0.13168 0.294039,0.29404 0,0.0665 0.131679,0.1204 0.294038,0.1204 h 1.817977 c 0.16236,0 0.294039,-0.0609 0.294039,-0.13591 h 4.207495 c 0.16236,0 0.294039,0.0609 0.294039,0.13591 h 2.111499 c 0.16236,0 0.294039,-0.13116 0.294039,-0.29352 0,-0.0665 0.131679,-0.12092 0.294039,-0.12092 h 3.213757 v 5.1e-4 h 1.165304 v -0.25114 -5.2e-4 h -4.379061 c -0.16236,0 -0.294039,-0.13116 -0.294039,-0.29352 v -0.002 c 0,-0.16236 -0.131679,-0.29404 -0.294039,-0.29404 h -8.725049 c -0.162359,0 -0.294038,0.13168 -0.294038,0.29404 v 0.002 c 0,0.16236 -0.131679,0.29352 -0.294039,0.29352 H 29.84314 c -0.16236,0 -0.188068,-0.0782 -0.06718,-0.18655 0.06511,-0.0583 0.127871,-0.11888 0.188102,-0.1819 0.112146,-0.11733 0.06159,-0.2217 -0.100769,-0.2217 z m -0.294038,1.50741 v 0.29403 0.002 0.29404 0.25115 0.41444 h 0.294038 0.585494 1.232483 c 0.16236,0 0.294039,-0.13168 0.294039,-0.29404 0,-0.0665 0.131679,-0.1204 0.294039,-0.1204 h 11.150741 c 0.16236,0 0.294039,0.13116 0.294039,0.29352 0,0.0665 0.131679,0.12092 0.294038,0.12092 h 1.817977 c 0.16236,0 0.294039,-0.13168 0.294039,-0.29404 0,-0.0665 0.131679,-0.1204 0.294039,-0.1204 h 3.913456 c 0.16236,0 0.294039,0.13116 0.294039,0.29352 0,0.0665 0.131679,0.12092 0.294039,0.12092 h 1.81746 c 0.16236,0 0.294039,-0.13168 0.294039,-0.29404 0,-0.0665 0.131679,-0.1204 0.294039,-0.1204 h 3.213757 0.871265 0.294039 v -0.25115 h -1.165304 -3.214274 c -0.162359,0 -0.294039,-0.13168 -0.294039,-0.29404 v -0.002 c 0,-0.16236 -0.131679,-0.29403 -0.294038,-0.29403 h -1.817461 c -0.162359,0 -0.294038,0.13167 -0.294038,0.29403 v 0.002 c 0,0.16236 -0.13168,0.29404 -0.294039,0.29404 h -3.913457 c -0.162359,0 -0.294038,-0.13168 -0.294038,-0.29404 v -0.002 c 0,-0.16236 -0.13168,-0.29403 -0.294039,-0.29403 h -1.817977 c -0.16236,0 -0.294039,0.13167 -0.294039,0.29403 v 0.002 c 0,0.16236 -0.131679,0.29404 -0.294039,0.29404 H 25.070821 c -0.16236,0 -0.294039,-0.13168 -0.294039,-0.29404 v -0.002 c 0,-0.16236 -0.131679,-0.29403 -0.294039,-0.29403 H 23.25026 22.664766 Z m 0,1.50688 v 0.29404 0.002 0.29404 0.25114 0.41445 h 0.294038 0.585494 1.232483 c 0.16236,0 0.294039,-0.13168 0.294039,-0.29404 0,-0.0665 0.131679,-0.12041 0.294039,-0.12041 h 6.176367 c 0.16236,0 0.294039,0.13116 0.294039,0.29352 0,0.0665 0.131679,0.12093 0.294039,0.12093 h 1.740462 c 0.16236,0 0.294039,-0.13168 0.294039,-0.29404 0,-0.0665 0.131679,-0.12041 0.294039,-0.12041 h 2.057756 c 0.16236,0 0.294039,0.13116 0.294039,0.29352 0,0.0665 0.131679,0.12093 0.294038,0.12093 h 1.817977 c 0.16236,0 0.294039,-0.13168 0.294039,-0.29404 0,-0.0665 0.131679,-0.12041 0.294039,-0.12041 h 3.913456 c 0.16236,0 0.294039,0.13116 0.294039,0.29352 0,0.0665 0.131679,0.12093 0.294039,0.12093 h 1.81746 c 0.16236,0 0.294039,-0.13168 0.294039,-0.29404 0,-0.0665 0.131679,-0.12041 0.294039,-0.12041 h 1.757516 c 0.162359,0 0.294038,0.13116 0.294038,0.29352 0,0.0665 0.13168,0.12093 0.294039,0.12093 h 0.868164 0.871782 0.294039 v -0.29404 -0.42013 -0.29352 h -0.294039 -0.871782 -0.868164 c -0.162359,0 -0.294039,0.13116 -0.294039,0.29352 0,0.0266 -0.131679,0.0486 -0.294038,0.0486 h -1.757516 c -0.16236,0 -0.294039,-0.13168 -0.294039,-0.29404 v -0.002 c 0,-0.16236 -0.131679,-0.29404 -0.294039,-0.29404 h -1.81746 c -0.16236,0 -0.294039,0.13168 -0.294039,0.29404 v 0.002 c 0,0.16236 -0.131679,0.29404 -0.294039,0.29404 h -3.913456 c -0.16236,0 -0.294039,-0.13168 -0.294039,-0.29404 v -0.002 c 0,-0.16236 -0.131679,-0.29404 -0.294039,-0.29404 h -1.817977 c -0.162359,0 -0.294038,0.13168 -0.294038,0.29404 v 0.002 c 0,0.16236 -0.131679,0.29404 -0.294039,0.29404 h -2.057756 c -0.16236,0 -0.294039,-0.13168 -0.294039,-0.29404 0,-0.0266 -0.131679,-0.0481 -0.294039,-0.0481 h -1.740462 c -0.16236,0 -0.294039,0.13116 -0.294039,0.29352 0,0.0266 -0.131679,0.0486 -0.294039,0.0486 h -6.176367 c -0.16236,0 -0.294039,-0.13168 -0.294039,-0.29404 v -0.002 c 0,-0.16236 -0.131679,-0.29404 -0.294039,-0.29404 H 23.25026 22.664766 Z m 0,1.50689 v 0.29352 5.1e-4 0.002 0.29404 0.25115 0.22841 h 0.879532 1.232483 c 0.16236,0 0.294039,-0.10226 0.294039,-0.22841 h 6.470406 c 0.16236,0 0.294039,0.10226 0.294039,0.22841 h 2.034501 c 0.16236,0 0.294039,-0.10226 0.294039,-0.22841 h 2.351795 c 0.16236,0 0.294039,0.10226 0.294039,0.22841 h 2.112015 c 0.16236,0 0.294039,-0.10226 0.294039,-0.22841 h 4.207495 c 0.16236,0 0.294039,0.10226 0.294039,0.22841 h 2.111499 c 0.16236,0 0.294039,-0.10226 0.294039,-0.22841 h 2.051555 c 0.162359,0 0.294038,0.10226 0.294038,0.22841 h 1.162203 0.871782 0.294039 v -0.29404 -0.48214 -0.29352 h -0.294039 -0.871782 -0.868164 c -0.162359,0 -0.294039,0.13116 -0.294039,0.29352 v 0.002 c 0,0.16236 -0.131679,0.29404 -0.294038,0.29404 h -1.757516 c -0.16236,0 -0.294039,-0.13168 -0.294039,-0.29404 v -0.002 c 0,-0.16236 -0.131679,-0.29352 -0.294039,-0.29352 h -1.81746 c -0.16236,0 -0.294039,0.13116 -0.294039,0.29352 v 0.002 c 0,0.16236 -0.131679,0.29404 -0.294039,0.29404 h -3.913456 c -0.16236,0 -0.294039,-0.13168 -0.294039,-0.29404 v -0.002 c 0,-0.16236 -0.131679,-0.29352 -0.294039,-0.29352 h -1.817977 c -0.162359,0 -0.294038,0.13116 -0.294038,0.29352 v 0.002 c 0,0.16236 -0.131679,0.29404 -0.294039,0.29404 h -2.057756 c -0.16236,0 -0.294039,-0.13168 -0.294039,-0.29404 v -0.002 c 0,-0.16236 -0.131679,-0.29352 -0.294039,-0.29352 h -1.740462 c -0.16236,0 -0.294039,0.13116 -0.294039,0.29352 v 0.002 c 0,0.16236 -0.131679,0.29404 -0.294039,0.29404 h -6.176367 c -0.16236,0 -0.294039,-0.13168 -0.294039,-0.29404 v -0.002 c 0,-0.16236 -0.131679,-0.29352 -0.294039,-0.29352 H 23.25026 22.664766 Z" />
  </g>
</svg>
