<?xml version="1.0" encoding="UTF-8" standalone="no"?>
<!-- Created with Inkscape (http://www.inkscape.org/) -->

<svg
   width="87.927444mm"
   height="11.803495mm"
   viewBox="0 0 87.927444 11.803495"
   version="1.1"
   id="svg1"
   xmlns="http://www.w3.org/2000/svg"
   xmlns:svg="http://www.w3.org/2000/svg">
  <defs
     id="defs1" />
  <g
     id="layer1"
     transform="translate(-22.370728,-165.60075)">
    <g
       id="g12"
       style="display:none">
      <g
         id="g11">
        <path
           id="text1"
           style="font-weight:800;font-size:15.5222px;line-height:1;font-family:'Plus Jakarta Sans';-inkscape-font-specification:'Plus Jakarta Sans Ultra-Bold';letter-spacing:0px;stroke-width:0.07;stroke-linecap:round;stroke-linejoin:round;paint-order:fill markers stroke"
           d="m 63.703088,76.752421 c -0.490451,0.07235 -0.964753,0.180756 -1.407666,0.359151 -0.356048,0.143409 -0.676778,0.331724 -0.985986,0.534851 h -5.564001 c -0.190104,-0.143548 -0.391016,-0.276261 -0.621151,-0.379821 -0.61054,-0.279399 -1.314178,-0.419096 -2.110982,-0.419096 h -4.42402 v 0.798917 H 45.687134 C 45.49703,77.502875 45.296118,77.370162 45.065983,77.266602 44.455445,76.987203 43.751805,76.847506 42.955001,76.847506 h -4.439522 v 0.798917 0.223243 h 7.453291 2.620512 7.437789 4.943884 7.515821 3.435449 2.764689 3.377572 2.764172 1.862935 2.406055 2.048971 3.099035 5.930904 3.077332 1.90893 2.40605 4.65657 2.40605 2.69854 6.37791 5.66994 2.40553 4.50154 2.40605 4.76095 3.88917 4.76095 7.79436 2.9161 2.40605 1.19528 8.22637 3.13159 3.88865 3.1316 8.22688 0.007 v -0.223243 h -0.007 v -0.798917 h -8.22688 v 0.798917 h -3.20704 l -0.27027,-0.798917 h -3.19722 l -0.27027,0.798917 h -3.20704 v -0.798917 h -8.22637 v 0.798917 h -1.19528 v -0.798917 h -2.40605 v 0.798917 h -3.17345 c -0.17964,-0.149263 -0.37142,-0.288017 -0.59841,-0.395324 -0.56915,-0.269051 -1.25218,-0.403593 -2.04897,-0.403593 h -4.88963 v 0.798917 h -4.8364 l -0.27026,-0.798917 h -3.19774 l -0.27027,0.798917 h -4.8364 v -0.798917 h -2.40605 v 0.798917 h -4.50154 v -0.798917 h -2.40553 v 0.798917 h -5.95726 c -0.31496,-0.248416 -0.65213,-0.470524 -1.04335,-0.628385 -0.29261,-0.118072 -0.59814,-0.206119 -0.91622,-0.265617 h -1.942 c -0.41409,0.07054 -0.8075,0.175313 -1.16221,0.343648 -0.30298,0.146272 -0.55129,0.340426 -0.78186,0.550354 h -2.94349 v -0.798917 h -2.40605 v 0.798917 h -4.65657 v -0.798917 h -2.40605 v 0.798917 h -1.90893 v -0.798917 h -2.32854 l -0.585494,0.798917 h -6.262667 l -0.602547,-0.798917 h -2.328023 v 0.798917 h -2.048971 v -0.798917 h -2.406055 v 0.798917 h -1.717207 l 0.521932,-0.798917 h -2.762623 l -0.522965,0.798917 h -3.670577 l -0.525549,-0.798917 h -2.762622 l 0.523999,0.798917 h -3.625102 c -0.306621,-0.203093 -0.625305,-0.391449 -0.981336,-0.534851 -0.44294,-0.178407 -0.917696,-0.286807 -1.408182,-0.359151 z m -25.187609,1.341003 v 0.894003 0.223242 h 2.406054 3.023588 2.901632 1.742529 2.406055 3.008085 2.901632 2.730582 3.434933 3.311426 3.439066 2.980697 2.766756 1.618506 2.765723 2.73885 2.406055 2.048971 4.109826 3.938261 4.059184 1.90893 2.40605 4.65657 2.40605 1.93218 2.60346 2.75177 2.77296 4.68602 2.40553 4.50154 2.40605 4.30723 4.79661 4.30723 2.40606 3.55275 2.60811 2.14354 2.40605 4.12895 2.40554 5.56503 4.79609 5.61155 2.40605 2.8944 v -0.223242 h -2.8944 v -0.04444 h 2.88716 v -0.849561 h -8.22688 v 0.849561 h 2.93367 v 0.04444 h -5.68699 l -0.30231,-0.894003 h -4.04058 l -0.30231,0.894003 h -5.64048 v -0.04444 h 2.88716 v -0.849561 h -8.22637 v 0.849561 h 2.93367 v 0.04444 h -4.12895 v -0.894003 h -2.40605 v 0.894003 h -2.23449 c -0.0666,-0.198785 -0.1297,-0.400125 -0.23358,-0.572058 -0.0719,-0.121569 -0.17665,-0.214057 -0.26406,-0.321945 h -7.97833 v 0.894003 h -4.38268 l -0.30282,-0.894003 h -4.04006 l -0.30283,0.894003 H 134.691 v -0.894003 h -2.40605 v 0.894003 h -4.50154 v -0.894003 h -2.40553 v 0.894003 h -4.80901 c -0.17173,-0.325758 -0.36715,-0.632384 -0.61805,-0.894003 h -6.81819 c -0.0589,0.07447 -0.13537,0.133529 -0.1881,0.213424 -0.13482,0.210657 -0.22925,0.441385 -0.30696,0.680579 h -2.00608 v -0.894003 h -2.40605 v 0.894003 h -4.65657 v -0.894003 h -2.40605 v 0.894003 h -1.90893 v -0.894003 h -3.241146 l -0.65474,0.894003 H 91.08798 l -0.673861,-0.894003 h -3.2675 v 0.894003 h -2.048971 v -0.894003 h -2.406055 v 0.894003 H 80.09847 l 0.583944,-0.894003 h -2.764173 l -0.584977,0.894003 h -1.911511 l -0.587561,-0.894003 h -2.765206 l 0.586528,0.894003 H 69.632442 C 69.468567,78.773705 69.306538,78.558623 69.109477,78.36886 69.004315,78.265683 68.878218,78.187851 68.765828,78.093424 h -8.078059 c -0.113972,0.09441 -0.241174,0.172278 -0.3483,0.275436 -0.193434,0.189785 -0.354485,0.404846 -0.517281,0.618567 h -3.019454 c -0.06609,-0.164928 -0.126577,-0.333996 -0.219624,-0.479041 -0.101121,-0.157629 -0.237873,-0.279557 -0.361219,-0.414962 h -7.632609 v 0.894003 h -1.844848 c -0.06609,-0.164928 -0.126578,-0.333996 -0.219625,-0.479041 -0.101121,-0.157629 -0.237873,-0.279557 -0.361219,-0.414962 z m 77.936841,0.663526 c 0.36868,0 0.69966,0.09423 1.0139,0.230477 h -1.97663 c 0.0398,-0.02233 0.0646,-0.05692 0.10904,-0.07545 0.24835,-0.103481 0.5329,-0.155029 0.85369,-0.155029 z m -51.719837,0.07751 c 0.368764,0 0.70991,0.06212 1.038179,0.152962 h -2.085144 c 0.333448,-0.09083 0.678226,-0.152962 1.046965,-0.152962 z m 85.775647,0.03101 h 2.6541 c 0.21703,0 0.39982,0.04816 0.5643,0.121957 h -3.2184 z M 40.921533,78.94298 h 2.048971 c 0.149862,0 0.287183,0.01848 0.419096,0.04444 h -2.468067 z m 10.073804,0 h 2.033468 c 0.149862,0 0.287183,0.01848 0.419095,0.04444 h -2.452563 z m -12.479858,0.491443 v 0.894002 0.223242 h 2.406054 3.724321 2.405538 1.53789 2.406055 3.708817 2.406055 1.854667 2.606043 6.323128 2.593123 3.194121 5.395536 3.614766 2.406055 2.048971 5.121134 1.944584 5.041553 1.90893 2.40605 4.65657 2.40605 1.85053 2.50011 10.39575 2.40553 4.50154 2.40605 3.85403 2.50476 0.68729 2.51096 3.85403 2.40606 3.76462 2.47686 2.06292 2.40605 4.12895 2.40554 5.11131 2.50528 0.68729 2.51096 5.15783 2.40605 2.8944 V 80.32843 h -2.8944 v -0.894002 h -2.40605 v 0.894002 h -5.23328 l -0.30282,-0.894002 h -4.94698 l -0.30283,0.894002 h -5.18676 v -0.894002 h -2.40554 v 0.894002 h -4.12895 v -0.894002 h -2.40605 v 0.894002 h -2.0314 c 0.004,-0.03239 0.0134,-0.06411 0.0134,-0.09715 0,-0.287481 -0.0423,-0.544595 -0.0909,-0.79685 H 154.218 c 0.10128,0.170219 0.17053,0.360644 0.17053,0.595312 0,0.112676 -0.0403,0.201374 -0.0661,0.29869 H 150.5082 V 79.43443 h -2.40606 v 0.894002 h -3.92947 l -0.30231,-0.894002 h -4.9475 l -0.30231,0.894002 H 134.691 V 79.43443 h -2.40605 v 0.894002 h -4.50154 V 79.43443 h -2.40553 v 0.894002 h -6.12263 l 1.62109,-0.733288 c -0.0205,-0.0577 -0.0545,-0.104584 -0.077,-0.160714 h -2.63239 c 0.27382,0.24233 0.49717,0.539689 0.66869,0.894002 h -3.95428 c -0.035,-0.09937 -0.0589,-0.202425 -0.0589,-0.314193 0,-0.218686 0.0616,-0.409262 0.16588,-0.579809 h -2.4536 c -0.0405,0.21855 -0.0868,0.434038 -0.0868,0.672827 0,0.0764 0.0109,0.147715 0.017,0.221175 h -1.83348 V 79.43443 h -2.40605 v 0.894002 h -4.65657 V 79.43443 h -2.40605 v 0.894002 H 99.25386 V 79.43443 h -4.223515 l -0.65474,0.894002 H 92.099258 L 91.425397,79.43443 h -4.278808 v 0.894002 H 85.097618 V 79.43443 h -2.406055 v 0.894002 h -3.469038 l 0.583943,-0.894002 h -2.765692 l -0.584978,0.894 H 76.30387 l -0.588078,-0.894002 h -2.767273 l 0.586527,0.894002 h -3.116605 c -0.007,-0.02195 -0.0111,-0.04502 -0.02015,-0.06615 -0.122189,-0.294938 -0.280373,-0.563797 -0.445451,-0.827856 h -3.131592 c 0.20287,0.130755 0.391851,0.281779 0.56534,0.455269 0.131032,0.131032 0.230479,0.287495 0.336414,0.438733 h -5.98103 c 0.105935,-0.151238 0.205382,-0.307701 0.336413,-0.438733 0.17342,-0.17342 0.360582,-0.324549 0.56069,-0.455269 h -3.135726 c -0.165903,0.264107 -0.325741,0.532858 -0.452169,0.827856 -0.0088,0.02114 -0.01285,0.04419 -0.01964,0.06615 h -1.945618 c -0.01386,-0.313882 -0.03623,-0.621641 -0.106453,-0.894002 h -2.698544 c 0.07724,0.08214 0.14982,0.168589 0.206706,0.269234 0.110525,0.181576 0.165446,0.395012 0.19172,0.624768 h -3.684013 v -0.894002 h -2.406055 v 0.894002 h -1.562178 c -0.01373,-0.313877 -0.03572,-0.621645 -0.105937,-0.894002 h -2.698543 c 0.07724,0.08214 0.149819,0.168589 0.206705,0.269234 0.110525,0.181576 0.165447,0.395012 0.19172,0.624768 h -3.699516 v -0.894002 z m 137.199381,0.05994 0.26975,0.834057 h -0.54209 z m -34.31987,10e-4 0.26975,0.833024 h -0.54209 z M 38.515479,80.775431 v 0.894003 0.223242 h 2.406054 2.975529 2.92747 1.76475 2.406055 2.960026 2.929537 1.783354 2.402437 7.323584 2.40037 3.766695 3.639571 4.490682 2.406055 2.048971 2.406054 0.819589 5.752103 0.72347 2.406055 1.90893 2.40605 4.65657 2.40605 2.36368 5.05602 7.32669 9.31312 3.40031 2.52078 1.55959 2.53008 3.40031 8.0946 2.61586 2.40605 4.12895 2.40554 4.65759 2.52078 1.56011 2.53008 4.70411 2.40605 2.8944 v -0.223242 h -2.8944 v -0.894003 h -2.40605 v 0.894003 h -4.77956 l -0.30282,-0.894003 h -2.51354 l 0.28939,0.894003 h -1.4149 l 0.29197,-0.894003 h -2.50734 l -0.30283,0.894003 h -4.73304 v -0.894003 h -2.40554 v 0.894003 h -4.12895 v -0.894003 h -2.40605 v 0.894003 h -2.42724 c 0.16974,-0.289256 0.26955,-0.588977 0.33279,-0.894003 h -2.59725 c -0.028,0.03392 -0.0407,0.07685 -0.0734,0.108004 -0.2173,0.206963 -0.51268,0.310059 -0.88521,0.310059 h -2.6541 v -0.418063 h -2.40606 v 0.894003 h -3.47576 l -0.3023,-0.894003 h -2.51406 l 0.28939,0.894003 h -1.41439 l 0.29197,-0.894003 h -2.50785 l -0.30231,0.894003 H 134.691 v -0.894003 h -2.40605 v 0.894003 h -4.50154 v -0.894003 h -2.40553 v 0.894003 h -8.0207 l -1.47898,-0.47594 c -0.32014,-0.103576 -0.55777,-0.245946 -0.73226,-0.418063 h -2.62774 c 0.0637,0.323083 0.1915,0.616281 0.35243,0.894003 h -2.23914 v -0.894003 h -2.40605 v 0.894003 h -4.65657 v -0.894003 h -2.40605 v 0.894003 h -1.90893 v -0.894003 h -5.205367 l -0.65474,0.894003 h -0.282671 l -0.674377,-0.894003 h -5.290116 v 0.894003 h -2.048971 v -0.894003 h -2.406055 v 0.894003 h -4.344954 l 0.583944,-0.894003 h -5.102531 l 0.586527,0.894003 h -3.667476 c -0.04662,-0.304773 -0.09916,-0.607218 -0.190686,-0.894003 h -2.546615 c 0.05612,0.108434 0.122001,0.208885 0.168465,0.325045 0.07277,0.177871 0.112227,0.37435 0.15503,0.568958 h -7.201628 c 0.0428,-0.194608 0.08226,-0.391087 0.155029,-0.568958 0.04646,-0.11616 0.112343,-0.216611 0.168466,-0.325045 h -2.55695 c -0.08847,0.286772 -0.138987,0.589237 -0.183968,0.894003 h -1.772502 c 0.07521,-0.280155 0.124471,-0.576709 0.14056,-0.894003 h -2.406055 c -0.02832,0.213547 -0.08236,0.414536 -0.188619,0.589112 -0.06482,0.114688 -0.145288,0.215368 -0.237711,0.304891 h -3.254582 v -0.894003 h -2.406055 v 0.894003 h -1.707389 c 0.0758,-0.279211 0.125364,-0.575639 0.141593,-0.894003 h -2.405538 c -0.02832,0.213547 -0.08235,0.414536 -0.188619,0.589112 -0.06482,0.114688 -0.145288,0.215368 -0.237711,0.304891 h -3.270085 v -0.894003 z m 51.037194,0.02222 0.652674,0.871782 h -0.652674 z m 7.295162,0.162264 v 0.709518 h -0.550354 z m -58.332356,1.156519 v 0.894002 0.223242 h 7.396964 2.676839 7.384046 2.685624 2.401404 7.344254 2.400887 3.833358 3.484025 4.568713 2.406055 2.048971 2.406054 1.823662 3.707784 1.763716 2.406055 1.90893 2.40605 4.65657 2.40605 4.20646 5.38882 5.15111 9.31312 2.94659 2.53628 2.43241 2.5492 2.94659 8.81703 1.89343 2.40605 4.12895 2.40554 4.20439 2.53577 2.4324 2.5492 4.25091 2.40605 2.8944 v -0.223242 h -2.8944 v -0.894002 h -2.40605 v 0.894002 h -4.32635 l -0.30231,-0.894002 h -2.53318 l 0.28939,0.894002 h -2.2872 l 0.29197,-0.894002 h -2.52284 l -0.30231,0.894002 h -4.27984 v -0.894002 h -2.40554 v 0.894002 h -4.12895 v -0.894002 h -2.40605 v 0.894002 h -2.02623 c -0.10519,-0.172153 -0.22309,-0.340388 -0.37983,-0.497127 -0.1243,-0.124302 -0.28798,-0.235571 -0.45165,-0.346749 0.0166,-0.016 0.0284,-0.0339 0.0444,-0.05013 h -7.89719 v 0.894002 h -3.02204 l -0.3023,-0.894002 h -2.5337 l 0.28991,0.894002 h -2.2872 l 0.29197,-0.894002 h -2.52336 l -0.30231,0.894002 h -3.022 V 82.11643 h -9.31312 v 0.894002 h -5.37435 c -0.34687,-0.350304 -0.78611,-0.654424 -1.35444,-0.894002 h -5.49631 c 0.30586,0.358026 0.74423,0.643678 1.24747,0.894002 h -3.76876 V 82.11643 h -2.40605 v 0.894002 h -4.65657 V 82.11643 h -2.40605 v 0.894002 H 99.25389 V 82.11643 h -2.406055 v 0.894002 h -1.5906 L 95.950732,82.11643 H 90.54021 l 0.66921,0.894002 H 89.552673 V 82.11643 h -2.406054 v 0.894002 H 85.097648 V 82.11643 h -2.406055 v 0.894002 h -4.713924 l -0.253214,-0.388607 0.330212,-0.505395 h -3.346566 l 0.331246,0.505395 -0.254248,0.388607 h -3.958414 c 0.01645,-0.127914 0.03721,-0.254149 0.03721,-0.388607 0,-0.174856 -0.03488,-0.335812 -0.04806,-0.505395 h -2.401921 c 0.01861,0.166289 0.04393,0.328767 0.04393,0.505395 0,0.1352 -0.01895,0.260776 -0.03359,0.388607 h -7.383528 c -0.01464,-0.127831 -0.03359,-0.253407 -0.03359,-0.388607 0,-0.176628 0.02531,-0.339106 0.04393,-0.505395 h -2.403471 c -0.01274,0.169587 -0.04651,0.330534 -0.04651,0.505395 0,0.134446 0.02039,0.260697 0.03669,0.388607 h -2.467549 c 0.138982,-0.143099 0.28427,-0.27932 0.397392,-0.450618 0.09104,-0.140459 0.17059,-0.288542 0.238745,-0.443384 h -3.694865 c -0.0289,0.001 -0.05308,0.0088 -0.08268,0.0088 H 50.99535 v -0.0088 h -2.406055 v 0.894002 h -2.483569 c 0.142073,-0.148095 0.290588,-0.289967 0.403593,-0.466121 0.08936,-0.135318 0.167298,-0.278076 0.234611,-0.427881 h -3.690731 c -0.0289,0.001 -0.05308,0.0088 -0.08268,0.0088 h -2.048971 v -0.0088 z m 0,1.341003 v 0.894002 0.223243 h 2.406054 7.667749 2.406055 1.90531 2.650484 3.389974 2.561084 6.460588 2.560567 3.238562 5.234823 3.694864 2.406055 2.048971 2.406054 2.827735 1.663981 2.803446 2.406055 1.93373 2.4443 4.52737 2.4474 3.15691 0.30076 4.18217 2.58537 4.54598 2.40553 4.50154 2.40605 2.49287 8.42533 2.49287 2.40606 4.32015 2.42982 1.55443 2.40605 4.12895 2.40554 3.75067 8.42481 3.79719 2.40605 2.8944 V 84.35144 h -2.8944 v -0.894002 h -2.40605 v 0.894002 h -3.87264 l -0.3023,-0.894002 h -2.55282 l 0.16175,0.499194 h -2.90267 l 0.1633,-0.499194 h -2.53886 l -0.30231,0.894002 h -3.82612 v -0.894002 h -2.40554 v 0.894002 h -4.12895 v -0.894002 h -2.40605 v 0.894002 h -1.59319 c -0.0261,-0.256355 -0.0521,-0.512721 -0.1297,-0.751892 -0.0156,-0.04932 -0.0473,-0.09377 -0.0661,-0.14211 h -2.99362 c 0.14683,0.06699 0.2896,0.139207 0.40515,0.250631 0.17949,0.173088 0.27305,0.398446 0.33434,0.643371 h -4.26123 v -0.894002 h -2.40606 v 0.894002 h -2.56832 l -0.30282,-0.894002 h -2.5523 l 0.16175,0.499194 h -2.90267 l 0.1633,-0.499194 h -2.53886 l -0.30283,0.894002 H 134.691 v -0.894002 h -9.31312 v 0.894002 h -4.60799 c -0.0808,-0.321842 -0.20197,-0.623152 -0.38241,-0.894002 h -4.93355 l 2.03864,0.670243 c 0.18918,0.06121 0.34337,0.13811 0.47749,0.223759 h -7.34942 c 0.004,-0.05892 0.0109,-0.116568 0.0109,-0.17725 v -0.716752 h -2.40605 v 0.561206 c 0,0.116185 -0.0235,0.223072 -0.0398,0.332796 h -4.57904 c -0.0155,-0.109717 -0.0377,-0.216621 -0.0377,-0.332796 v -0.561206 h -2.40605 v 0.716752 c 0,0.06069 0.007,0.118335 0.0109,0.17725 h -1.91978 v -0.894002 h -2.406055 v 0.894002 h -2.63033 l 0.692981,-0.894002 h -3.36672 l 0.66921,0.894002 H 89.552673 V 83.457438 H 87.146619 V 84.35144 H 85.097648 V 83.457438 H 82.691593 V 84.35144 H 78.851001 L 78.268608,83.457438 H 74.492611 L 73.90815,84.35144 h -3.332613 c 0.08676,-0.291134 0.168158,-0.584421 0.208773,-0.894002 h -2.405538 c -0.04648,0.243767 -0.111503,0.478747 -0.200505,0.701249 -0.02754,0.06886 -0.06571,0.129135 -0.09974,0.192753 h -6.692098 c -0.03402,-0.06362 -0.07219,-0.123893 -0.09974,-0.192753 -0.089,-0.222502 -0.154029,-0.457482 -0.200504,-0.701249 H 58.68013 c 0.04061,0.309559 0.122015,0.602868 0.208773,0.894002 H 55.42349 l -0.314709,-0.549837 c 0.20191,-0.0924 0.369405,-0.22234 0.544153,-0.344165 h -7.063652 v 0.894002 h -7.667749 v -0.130741 h 2.033468 c 0.786456,0 1.484941,-0.139696 2.095479,-0.419096 0.200915,-0.09376 0.364693,-0.223315 0.537435,-0.344165 z m 89.267931,0.483692 h 4.50154 v 0.41031 h -4.50154 z m -76.788073,0.279569 h 1.707389 l 0.07286,0.130741 h -1.780253 z m -12.479858,0.577743 v 0.894002 0.223242 h 2.406054 7.667749 2.406055 2.655652 2.668054 3.255615 3.250448 3.807003 3.254065 2.998783 2.771407 1.449524 2.764172 2.821533 2.406055 2.048971 2.406054 7.295162 2.406055 2.24276 2.95072 2.89802 2.94349 1.99884 2.86132 3.17242 2.44688 4.60954 2.40553 4.50154 2.40605 2.03967 9.33173 2.03967 2.40606 3.89692 2.71042 1.69706 2.40605 4.12895 2.40554 3.29695 9.33225 3.34347 2.40605 2.8944 v -0.223242 h -2.8944 v -0.894002 h -2.40605 v 0.894002 h -3.41892 l -0.3023,-0.894002 h -8.57674 l -0.30231,0.894002 h -3.3724 v -0.894002 h -2.40554 v 0.894002 h -4.12895 v -0.894002 h -2.40605 v 0.894002 h -1.64796 c 0.0638,-0.276068 0.1111,-0.563183 0.1111,-0.882117 0,-0.0041 -0.001,-0.0078 -0.001,-0.01189 h -2.40709 c 3e-5,0.0044 0.002,0.0075 0.002,0.01189 0,0.35038 -0.11646,0.634343 -0.29611,0.882117 h -4.06538 v -0.894002 h -2.40606 v 0.894002 h -2.11512 l -0.3023,-0.894002 h -8.57622 l -0.30231,0.894002 H 134.691 v -0.894002 h -2.40605 v 0.894002 h -4.50154 v -0.894002 h -2.40553 v 0.894002 h -4.57854 c 0.0357,-0.18122 0.077,-0.360116 0.077,-0.556039 0,-0.117163 -0.0157,-0.226224 -0.0263,-0.337963 h -2.45825 c 0.0742,0.142981 0.12506,0.29743 0.12506,0.47749 0,0.152064 -0.0349,0.287928 -0.0858,0.416512 h -3.51606 c -0.27285,-0.254914 -0.51537,-0.547492 -0.71417,-0.894002 h -0.93534 l -1.23662,0.555004 c 0.0416,0.121028 0.10093,0.228386 0.15606,0.338998 h -1.81849 c 0.10334,-0.285965 0.18476,-0.581388 0.22531,-0.894002 h -2.49391 c -0.0493,0.158675 -0.10132,0.31602 -0.18241,0.461987 -0.0896,0.165018 -0.20567,0.303431 -0.33177,0.432015 h -3.37757 c -0.12845,-0.128629 -0.24773,-0.266885 -0.3421,-0.432015 -0.077,-0.145925 -0.12626,-0.303361 -0.17311,-0.461987 h -2.48874 c 0.0395,0.31259 0.11853,0.608042 0.21911,0.894002 h -2.16731 v -0.894002 h -2.406055 v 0.894002 h -7.295162 v -0.894002 h -2.406054 v 0.894002 h -2.048971 v -0.894002 h -2.406055 v 0.894002 h -2.966744 l -0.582393,-0.894002 h -5.526794 l -0.584461,0.894002 h -3.022554 c 0.140424,-0.229565 0.28149,-0.458719 0.38964,-0.711068 0.02506,-0.05847 0.03329,-0.123659 0.05633,-0.182934 h -2.607593 c -0.133625,0.206051 -0.286573,0.396645 -0.460437,0.570507 -0.132516,0.128502 -0.294189,0.220034 -0.446484,0.323495 h -4.419885 c -0.150408,-0.103449 -0.309319,-0.194995 -0.441834,-0.323495 -0.173862,-0.173862 -0.32681,-0.364456 -0.460437,-0.570507 h -2.607592 c 0.02303,0.05927 0.03127,0.124475 0.05633,0.182934 0.108136,0.252317 0.247612,0.481492 0.38654,0.711068 H 56.191448 L 55.679335,84.798441 H 53.02575 l 0.500228,0.894002 h -2.530595 v -0.894002 h -2.406055 v 0.894002 h -7.667749 v -0.894002 z m 37.868489,0.01085 0.576192,0.88315 h -1.157035 z m -37.868489,1.330151 v 0.894002 0.223242 h 2.406054 7.667749 2.406055 3.405477 2.685624 3.732072 7.818127 3.370854 2.766756 3.206006 2.763656 1.947684 2.406055 2.048971 2.406054 7.295162 2.406055 3.16466 6.95255 3.89279 6.79493 5.31906 2.40553 4.50154 2.40605 1.58595 2.59674 5.03019 2.61224 1.58595 8.23877 2.47169 2.40605 4.12895 2.40554 2.84324 2.59725 5.03019 2.61224 2.88975 2.40605 2.8944 v -0.223242 h -2.8944 v -0.894002 h -2.40605 v 0.894002 h -2.9652 l -0.3023,-0.894002 h -2.60191 l 0.29404,0.894002 h -4.88343 l 0.29404,-0.894002 h -2.58692 l -0.30231,0.894002 h -2.91868 v -0.894002 h -2.40554 v 0.894002 h -4.12895 v -0.894002 h -2.40605 v 0.894002 h -2.29237 c 0.22169,-0.26747 0.40881,-0.558199 0.52865,-0.894002 h -3.0055 c -0.2246,0.105472 -0.47322,0.176733 -0.77205,0.176733 h -2.76313 v -0.176733 h -2.40606 v 0.894002 h -1.6614 l -0.3023,-0.894002 h -2.60191 l 0.29404,0.894002 h -4.88343 l 0.29404,-0.894002 h -2.5864 l -0.30231,0.894002 h -1.6614 v -0.894002 h -2.40605 v 0.894002 h -4.50154 v -0.894002 h -2.40553 v 0.894002 h -5.11649 c 0.029,-0.03232 0.0629,-0.06067 0.0873,-0.09663 0.16581,-0.248719 0.28492,-0.51647 0.37258,-0.797367 h -2.62103 c -0.10004,0.07948 -0.21241,0.150455 -0.34416,0.207739 -0.23801,0.103481 -0.52257,0.15503 -0.85369,0.15503 -0.48347,0 -0.92597,-0.143169 -1.34669,-0.362769 h -3.16518 c 0.17769,0.322239 0.38221,0.623861 0.62735,0.894002 h -3.46852 c 0.16397,-0.183455 0.33122,-0.364012 0.46147,-0.577742 0.0628,-0.102113 0.11154,-0.210093 0.16484,-0.31626 h -3.14347 c -0.32876,0.185039 -0.7043,0.285254 -1.13482,0.285254 -0.42085,0 -0.79676,-0.100118 -1.1343,-0.285254 h -3.15536 c 0.052,0.106114 0.0995,0.214196 0.16072,0.31626 0.13354,0.213683 0.30263,0.394314 0.4687,0.577742 h -2.98328 v -0.894002 h -2.406055 v 0.894002 h -7.295162 v -0.894002 h -2.406054 v 0.894002 h -2.048971 v -0.894002 h -2.406055 v 0.894002 h -2.092895 l -0.582393,-0.894002 h -2.76469 l 0.582911,0.894002 h -2.913518 l 0.588078,-0.894002 h -2.77089 l -0.584461,0.894002 h -3.238562 c 0.06006,-0.04715 0.124094,-0.08947 0.178801,-0.143143 0.236176,-0.231803 0.438124,-0.487632 0.629936,-0.750859 h -3.521749 c -0.0039,0.0016 -0.007,0.0041 -0.01085,0.0057 -0.44497,0.186267 -0.931073,0.27957 -1.458826,0.27957 -0.527754,0 -1.019529,-0.0933 -1.474845,-0.27957 -0.0038,-0.0016 -0.007,-0.0041 -0.01085,-0.0057 h -3.511413 c 0.189259,0.263171 0.387843,0.5191 0.6196,0.750859 0.05566,0.0536 0.120088,0.09604 0.180868,0.143143 h -3.577043 l -0.512113,-0.894002 h -2.670638 l 0.499711,0.894002 h -3.28042 v -0.894002 h -2.406055 v 0.894002 h -7.667749 v -0.894002 z m 0,1.341003 v 0.894003 0.03721 0.186035 h 26.217004 41.164927 10.84999 72.27879 v -0.223242 h -2.8944 v -0.894003 h -2.40605 v 0.894003 h -2.51148 l -0.30282,-0.894003 h -2.61431 l 0.29404,0.894003 h -5.76503 l 0.29404,-0.894003 h -2.59932 l -0.30283,0.894003 h -2.46496 v -0.894003 h -2.40554 v 0.894003 h -4.12895 v -0.894003 h -2.40605 v 0.894003 h -5.2188 c 1.04256,-0.08338 1.89217,-0.373163 2.52594,-0.894003 h -8.0176 v 0.894003 h -1.20768 l -0.3023,-0.894003 h -2.61483 l 0.29404,0.894003 h -5.76503 l 0.29404,-0.894003 h -2.59932 l -0.30231,0.894003 H 134.691 v -0.894003 h -2.40605 v 0.894003 h -4.50154 v -0.894003 h -2.40553 v 0.894003 h -7.13238 c 0.21963,-0.06347 0.44599,-0.117439 0.64388,-0.211357 0.37785,-0.182625 0.68866,-0.419542 0.96687,-0.682646 h -6.32933 c 0.35614,0.288284 0.73687,0.543899 1.17151,0.729155 0.18175,0.07329 0.37434,0.112316 0.56275,0.164848 h -7.80934 c 0.30761,-0.09098 0.60481,-0.201903 0.88263,-0.350883 0.29055,-0.155801 0.54841,-0.341055 0.78755,-0.54312 h -6.42855 c 0.23758,0.197841 0.48129,0.389977 0.76688,0.54312 0.27783,0.14898 0.57503,0.259908 0.88264,0.350883 h -5.0891 v -0.894003 h -2.406055 v 0.894003 h -7.295162 v -0.894003 h -2.406054 v 0.894003 h -2.048971 v -0.894003 h -2.406055 v 0.894003 H 81.47203 l -0.582394,-0.894003 h -2.763139 l 0.582911,0.894003 h -4.670516 l 0.588077,-0.894003 h -2.765722 l -0.584977,0.894003 h -4.905127 c 0.264551,-0.06697 0.532398,-0.125964 0.782898,-0.22686 0.438731,-0.176712 0.83247,-0.407903 1.203027,-0.667143 h -7.255371 c 0.374212,0.259314 0.770401,0.490393 1.209228,0.667143 0.2505,0.100896 0.518347,0.159893 0.782898,0.22686 h -5.367631 l -0.511596,-0.894003 h -2.688725 l 0.500228,0.894003 h -4.030762 v -0.894003 h -2.406055 v 0.894003 h -7.667749 v -0.894003 z" />
      </g>
      <g
         id="g10"
         transform="translate(1.2194089,73.543438)">
        <path
           id="text2"
           style="font-weight:800;font-size:15.5222px;line-height:1;font-family:'Plus Jakarta Sans';-inkscape-font-specification:'Plus Jakarta Sans Ultra-Bold';letter-spacing:0px;stroke-width:0.07;stroke-linecap:round;stroke-linejoin:round;paint-order:fill markers stroke"
           d="m 38.515633,76.529055 h 90.068407 z m 25.105962,0.223243 c -0.462968,0.0738 -0.90687,0.189912 -1.327051,0.359151 -0.361926,0.145777 -0.692405,0.331498 -1.009241,0.534851 h -5.532479 c -0.193011,-0.143419 -0.397462,-0.275441 -0.629419,-0.379822 -0.610538,-0.2794 -1.314177,-0.419096 -2.110982,-0.419096 H 48.588404 V 77.6463 h -2.893881 c -0.193011,-0.143419 -0.397462,-0.275441 -0.629419,-0.379822 -0.610538,-0.2794 -1.314178,-0.419096 -2.110982,-0.419096 h -4.438489 v 0.798918 0.223759 h 7.464144 2.608627 7.449674 4.90151 7.576798 3.405477 2.764689 3.377055 2.763656 10.990543 2.406055 4.501534 2.405535 4.76147 3.88865 4.76147 7.81192 6.2296 V 77.6463 h -6.49211 c -0.18416,-0.149093 -0.38151,-0.28668 -0.61133,-0.395325 -0.56915,-0.269052 -1.25217,-0.403593 -2.04898,-0.403593 h -4.8891 V 77.6463 h -4.83692 l -0.27026,-0.798918 h -3.19723 l -0.27026,0.798918 h -4.83692 V 76.847382 H 98.725395 V 77.6463 H 94.223861 V 76.847382 H 91.817806 V 77.6463 H 80.973507 l 0.521932,-0.798918 H 78.732817 L 78.209851,77.6463 H 74.539274 L 74.013725,76.847382 H 71.251103 L 71.775102,77.6463 H 68.173771 C 67.859473,77.442934 67.530558,77.257213 67.168665,77.111449 66.748482,76.94221 66.304582,76.826093 65.841614,76.752298 Z m -25.105962,1.341003 v 0.894002 0.223759 h 2.405022 3.024621 2.900598 1.74253 2.406054 3.009119 2.900598 2.727482 3.437516 3.31246 3.442167 2.977596 2.767273 1.617472 2.765206 11.866459 2.406055 4.501534 2.405535 4.30775 4.79609 4.30775 2.40554 3.55688 2.6076 5.4715 v -0.223759 h -5.5454 c -0.0682,-0.202753 -0.14836,-0.396797 -0.25425,-0.572058 -0.0674,-0.113951 -0.14376,-0.220013 -0.22479,-0.321944 h -8.01708 v 0.894002 h -4.3832 l -0.3023,-0.894002 h -4.04058 l -0.30231,0.894002 h -4.3832 v -0.894002 h -2.405535 v 0.894002 h -4.501534 v -0.894002 h -2.406055 v 0.894002 H 80.097591 l 0.583944,-0.894002 h -2.764172 l -0.584977,0.894002 h -1.910995 l -0.588078,-0.894002 h -2.765206 l 0.586528,0.894002 h -3.002401 c -0.166481,-0.216807 -0.343627,-0.425966 -0.543636,-0.618567 -0.09901,-0.09714 -0.204641,-0.18605 -0.310058,-0.275435 h -8.144723 c -0.106937,0.08938 -0.214358,0.178305 -0.315226,0.275435 -0.196251,0.192547 -0.371146,0.40181 -0.536402,0.618567 h -2.984314 c -0.06685,-0.168262 -0.140892,-0.331338 -0.235644,-0.47904 -0.09557,-0.148977 -0.202906,-0.285837 -0.318327,-0.414962 h -7.6755 v 0.894002 h -1.828829 c -0.06685,-0.168262 -0.140893,-0.331338 -0.235645,-0.47904 -0.09557,-0.148977 -0.202905,-0.285837 -0.318327,-0.414962 z m 26.215971,0.74104 c 0.368564,0 0.70955,0.06207 1.037663,0.152962 h -2.08411 c 0.333287,-0.09088 0.677905,-0.152962 1.046447,-0.152962 z m 52.216456,0.03101 h 2.65461 c 0.22315,0 0.41496,0.04395 0.5824,0.121956 h -3.23701 z m -76.027405,0.07752 h 2.04897 c 0.149863,0 0.287184,0.01848 0.419096,0.04444 h -2.468066 z m 10.073803,0 h 2.033468 c 0.149862,0 0.287184,0.01848 0.419096,0.04444 h -2.452564 z m -12.478825,0.491443 v 0.894002 0.223759 h 2.405022 3.72432 2.406055 1.537374 2.406054 3.708818 2.406571 1.837614 2.622062 6.324162 2.610177 3.177067 5.394503 12.742374 2.406055 4.501534 2.405535 3.85403 2.50476 0.68833 2.51044 3.85403 2.40554 3.77186 2.49287 5.37125 v -0.223759 h -5.35575 c 0.002,-0.03249 0.007,-0.06446 0.007,-0.09715 0,-0.284676 -0.0308,-0.546719 -0.0786,-0.79685 h -2.47943 c 0.0979,0.16841 0.15193,0.36461 0.15193,0.595312 0,0.106455 -0.0134,0.205086 -0.0351,0.29869 h -3.84576 v -0.894002 h -2.40554 v 0.894002 h -3.93 l -0.3023,-0.894002 h -4.94699 l -0.3023,0.894002 h -3.93 v -0.894002 h -2.405535 v 0.894002 h -4.501534 v -0.894002 h -2.406055 v 0.894002 h -12.5964 L 79.80562,79.434305 H 77.039897 L 76.45492,80.328307 H 76.303508 L 75.71543,79.434305 h -2.76779 l 0.586528,0.894002 h -3.112472 c -0.0084,-0.02193 -0.01504,-0.04456 -0.02429,-0.06615 -0.121233,-0.292634 -0.269594,-0.565623 -0.433048,-0.827856 H 66.82088 c 0.202869,0.130753 0.391335,0.282294 0.564824,0.455786 0.13401,0.134008 0.248656,0.283334 0.356567,0.438216 h -6.021338 c 0.107912,-0.154882 0.222558,-0.304208 0.356568,-0.438216 0.17342,-0.173424 0.36058,-0.325067 0.560689,-0.455786 h -3.148128 c -0.16423,0.262201 -0.31437,0.535261 -0.439767,0.827856 -0.0089,0.02156 -0.01515,0.04424 -0.02325,0.06615 h -1.929081 c -0.0133,-0.317398 -0.04797,-0.619 -0.118856,-0.894002 h -2.69906 c 0.07724,0.08214 0.149819,0.168588 0.206706,0.269234 0.110523,0.181575 0.165446,0.395011 0.191719,0.624768 H 50.99446 v -0.894002 h -2.406054 v 0.894002 h -1.548743 c -0.01317,-0.317406 -0.04797,-0.618995 -0.118856,-0.894002 h -2.69906 c 0.07724,0.08214 0.149819,0.168588 0.206706,0.269234 0.110524,0.181575 0.165446,0.395011 0.191719,0.624768 h -3.699515 v -0.894002 z m 69.319797,0.05994 0.27027,0.834058 h -0.5426 z m -69.319797,1.281059 v 0.894002 0.223759 h 2.405022 2.975012 2.927986 1.764751 2.406054 2.95951 2.930053 1.759066 2.426725 7.323584 2.425175 3.741891 3.639054 13.61829 9.313124 3.40031 2.52026 1.56063 2.53008 3.40031 8.1225 5.91902 V 81.66931 h -5.75779 c 0.17075,-0.289827 0.28362,-0.588233 0.34675,-0.894002 h -2.59364 c -0.0296,0.03661 -0.057,0.07458 -0.092,0.108004 -0.21731,0.206958 -0.51216,0.310575 -0.8847,0.310575 h -2.65461 v -0.418579 h -2.40554 v 0.894002 h -3.47628 l -0.3023,-0.894002 h -2.51355 l 0.28939,0.894002 h -1.4149 l 0.29197,-0.894002 h -2.50734 l -0.3023,0.894002 h -3.47628 V 80.775308 H 98.725395 V 81.66931 H 94.223861 V 80.775308 H 91.817806 V 81.66931 H 78.34576 l 0.583944,-0.894002 h -5.102531 l 0.586528,0.894002 h -3.630786 c -0.04532,-0.306223 -0.106166,-0.606146 -0.197404,-0.894002 h -2.576587 c 0.05612,0.108433 0.122001,0.208884 0.168465,0.325045 0.07356,0.179809 0.124989,0.372062 0.167948,0.568957 h -7.227466 c 0.04296,-0.196895 0.09439,-0.389148 0.167949,-0.568957 0.04646,-0.116161 0.112342,-0.216612 0.168465,-0.325045 h -2.585889 c -0.0882,0.287869 -0.147388,0.587762 -0.191203,0.894002 h -1.73271 c 0.07939,-0.279922 0.13633,-0.574084 0.151928,-0.894002 h -2.42104 c -0.0283,0.213651 -0.08231,0.414463 -0.188619,0.589111 -0.06488,0.114791 -0.145215,0.215273 -0.237712,0.304891 h -3.254582 v -0.894002 h -2.406054 v 0.894002 h -1.703772 c 0.07999,-0.278906 0.13725,-0.57283 0.152962,-0.894002 H 44.61707 c -0.0283,0.213651 -0.08231,0.414463 -0.188619,0.589111 -0.06488,0.114791 -0.145215,0.215273 -0.237712,0.304891 h -3.270084 v -0.894002 z m 0,1.341003 v 0.894003 0.223759 h 7.400066 2.672705 7.390763 2.649967 2.430343 7.344255 2.430342 3.803902 3.484542 13.695288 9.313124 2.94659 2.53628 2.43241 2.54972 2.94659 8.81703 5.22449 v -0.223759 h -5.35781 c -0.10508,-0.172065 -0.22266,-0.340471 -0.37931,-0.497128 -0.12207,-0.122074 -0.2699,-0.235781 -0.42995,-0.345198 0.0178,-0.01719 0.0361,-0.03422 0.0532,-0.05168 h -7.92768 v 0.894003 h -3.02256 l -0.3023,-0.894003 h -2.53318 l 0.28939,0.894003 h -2.2872 l 0.29197,-0.894003 h -2.52285 l -0.3023,0.894003 h -3.02256 v -0.894003 h -9.313124 v 0.894003 H 77.976791 l -0.253215,-0.388607 0.330213,-0.505396 h -3.346566 l 0.331246,0.505396 -0.254248,0.388607 h -3.939812 c 0.0078,-0.128884 0.0186,-0.256654 0.0186,-0.388607 0,-0.171603 -0.01107,-0.338871 -0.02377,-0.505396 H 68.41303 c 0.01861,0.16629 0.04393,0.328767 0.04393,0.505396 0,0.135114 -0.01897,0.260737 -0.03359,0.388607 h -7.38353 c -0.01462,-0.12787 -0.03359,-0.253493 -0.03359,-0.388607 0,-0.176629 0.02531,-0.339106 0.04393,-0.505396 h -2.427242 c -0.01227,0.166522 -0.02274,0.333796 -0.02274,0.505396 0,0.131953 0.01081,0.259723 0.0186,0.388607 h -2.416907 c 0.131541,-0.139337 0.256313,-0.286283 0.364836,-0.450619 0.09112,-0.140591 0.170548,-0.288382 0.238745,-0.443384 h -3.694865 c -0.0289,10e-4 -0.05308,0.0088 -0.08268,0.0088 h -2.033468 v -0.0088 h -2.406054 v 0.894003 h -2.452047 c 0.135411,-0.144316 0.263107,-0.296266 0.37207,-0.466122 0.08936,-0.135317 0.167298,-0.278075 0.234611,-0.427881 h -3.690731 c -0.0289,10e-4 -0.05308,0.0088 -0.08268,0.0088 h -2.04897 v -0.0088 z m 0,1.341004 v 0.894002 0.223759 h 2.405022 7.667749 2.406054 1.905827 2.650484 3.366203 2.584339 6.460587 2.584338 3.214275 5.235856 12.821439 2.406055 4.501534 2.405535 2.49287 8.42585 2.49287 2.40554 4.34237 2.40812 4.88549 v -0.223759 h -4.90978 c -0.0261,-0.258024 -0.0667,-0.511244 -0.14469,-0.751892 -0.0156,-0.04933 -0.0473,-0.09375 -0.0662,-0.14211 h -2.96416 c 0.13797,0.06575 0.26644,0.145306 0.3762,0.251147 0.18174,0.175244 0.28567,0.397606 0.35192,0.642855 h -4.27932 V 83.45732 h -2.40554 v 0.894002 h -2.56884 l -0.30231,-0.894002 h -2.55281 l 0.16175,0.499194 h -2.90267 l 0.1633,-0.499194 h -2.53886 l -0.30231,0.894002 h -2.56884 V 83.45732 h -9.313124 v 0.894002 H 78.850639 l -0.58291,-0.894002 h -3.775997 l -0.584977,0.894002 h -3.297473 c 0.08497,-0.289851 0.153787,-0.586165 0.193786,-0.894002 h -2.425175 c -0.04648,0.243939 -0.111445,0.4786 -0.200504,0.701249 -0.02754,0.06886 -0.06577,0.129105 -0.09974,0.192753 h -6.692098 c -0.03397,-0.06365 -0.07219,-0.123894 -0.09973,-0.192753 -0.08906,-0.222649 -0.154027,-0.45731 -0.200505,-0.701249 H 58.66014 c 0.04,0.307837 0.108821,0.604151 0.193787,0.894002 h -3.431315 l -0.31471,-0.549837 c 0.211199,-0.09665 0.401947,-0.215319 0.583427,-0.344165 h -7.102925 v 0.894002 h -7.667749 v -0.130741 h 2.033467 c 0.786456,0 1.48494,-0.139696 2.09548,-0.419096 0.210138,-0.09806 0.398939,-0.216466 0.578259,-0.344165 z m 55.708228,0.483691 h 4.501534 v 0.410311 h -4.501534 z m -43.229403,0.27957 h 1.70739 l 0.07338,0.130741 h -1.78077 z m -12.478825,0.577742 v 0.894002 0.223243 5.16e-4 H 128.58404 V 85.69232 h -4.97903 c 0.0638,-0.276073 0.11111,-0.563246 0.11111,-0.882116 0,-0.0041 -0.001,-0.0078 -0.001,-0.01189 h -2.40605 c 2e-5,0.0041 10e-4,0.0077 10e-4,0.01189 0,0.343965 -0.0889,0.637034 -0.262,0.882116 h -4.1 v -0.894002 h -2.40554 v 0.894002 h -2.11512 l -0.30231,-0.894002 h -8.57673 l -0.30231,0.894002 h -2.11512 V 84.798318 H 98.725395 V 85.69232 H 94.223861 V 84.798318 H 91.817806 V 85.69232 H 79.723971 l -0.582394,-0.894002 h -5.526794 l -0.58446,0.894002 h -3.004985 c 0.137238,-0.227661 0.265285,-0.461901 0.37207,-0.711067 0.02559,-0.0597 0.0437,-0.122394 0.06718,-0.182935 h -2.618445 c -0.133627,0.206052 -0.286574,0.397162 -0.460437,0.571025 -0.123789,0.120037 -0.259315,0.225171 -0.400493,0.322977 H 62.475411 C 62.335849,85.59449 62.201276,85.489365 62.077503,85.369343 61.903639,85.19548 61.750693,85.00437 61.617066,84.798318 h -2.618445 c 0.02348,0.06054 0.0416,0.123238 0.06718,0.182935 0.106787,0.249167 0.234096,0.483403 0.370004,0.711067 h -3.24528 L 55.67841,84.798318 h -2.653585 l 0.500228,0.894002 h -2.530595 v -0.894002 h -2.406054 v 0.894002 h -7.667749 v -0.894002 z m 37.867456,0.01085 0.576193,0.88315 h -1.157036 z m -37.867456,1.330152 v 0.894002 0.223242 h 2.405022 7.667749 2.406054 3.405477 2.685624 3.688147 7.907011 3.325895 2.766757 3.206005 2.763656 2.925403 2.32854 5.820833 2.406055 4.501534 2.405535 1.58595 2.59726 5.02967 2.61276 1.58595 8.23825 3.44992 2.32803 0.0253 v -0.223242 h -0.0253 v -0.894002 h -2.32803 v 0.894002 h -3.2706 c 0.22188,-0.267489 0.40932,-0.558081 0.52917,-0.894002 h -2.97243 c -0.23011,0.113484 -0.49567,0.176733 -0.80564,0.176733 h -2.76313 v -0.176733 h -2.40554 v 0.894002 h -1.6614 l -0.30231,-0.894002 h -2.60191 l 0.29353,0.894002 h -4.88291 l 0.29352,-0.894002 h -2.5864 l -0.30231,0.894002 h -1.6614 v -0.894002 h -2.405535 v 0.894002 h -4.501534 v -0.894002 h -2.406055 v 0.894002 h -5.820833 v -0.894002 h -2.32854 v 0.894002 h -3.070614 l -0.582393,-0.894002 h -2.764689 l 0.58291,0.894002 H 74.92013 l 0.588077,-0.894002 h -2.77089 l -0.58446,0.894002 h -3.220992 c 0.05326,-0.04828 0.109758,-0.09264 0.16123,-0.143144 0.237679,-0.233279 0.44804,-0.485756 0.640788,-0.750858 h -3.531567 c -0.0042,0.0017 -0.0077,0.0045 -0.01189,0.0062 -0.44497,0.186266 -0.931072,0.279053 -1.458826,0.279053 -0.527753,0 -1.019529,-0.09279 -1.474845,-0.279053 -0.0042,-0.0018 -0.0077,-0.0044 -0.01189,-0.0062 h -3.521232 c 0.190234,0.265132 0.397152,0.517556 0.630453,0.750858 0.05242,0.05048 0.109606,0.09491 0.163814,0.143144 h -3.559989 l -0.512114,-0.894002 h -2.670638 l 0.499711,0.894002 h -3.28042 v -0.894002 h -2.406054 v 0.894002 h -7.667749 v -0.894002 z m 0,1.341003 v 0.894002 0.03721 0.186035 h 26.215971 63.852436 v -0.223242 h -0.0253 v -0.894002 h -2.32803 v 0.894002 h -6.19703 c 1.04256,-0.08339 1.89217,-0.373171 2.52594,-0.894002 h -8.01708 v 0.894002 h -1.20768 l -0.30282,-0.894002 h -2.61432 l 0.29353,0.894002 h -5.76451 l 0.29352,-0.894002 h -2.5988 l -0.30283,0.894002 h -1.20768 v -0.894002 h -2.405535 v 0.894002 h -4.501534 v -0.894002 h -2.406055 v 0.894002 h -5.820833 v -0.894002 h -2.32854 v 0.894002 h -2.197282 l -0.582393,-0.894002 h -2.763139 l 0.58291,0.894002 h -4.670516 l 0.588078,-0.894002 h -2.765723 l -0.584977,0.894002 h -4.819344 c 0.237419,-0.06341 0.471131,-0.135839 0.697115,-0.226859 0.443317,-0.178561 0.847404,-0.404322 1.221114,-0.667143 h -7.291028 c 0.377393,0.262842 0.783454,0.488571 1.226799,0.667143 0.225983,0.09102 0.459695,0.163451 0.697115,0.226859 h -5.281848 l -0.511597,-0.894002 h -2.688725 l 0.500228,0.894002 h -4.030762 v -0.894002 h -2.406054 v 0.894002 h -7.667749 v -0.894002 z" />
      </g>
      <g
         id="g9"
         transform="translate(2.2061969,113.31828)">
        <path
           id="text4"
           style="font-weight:800;font-size:15.5222px;line-height:1;font-family:'Plus Jakarta Sans';-inkscape-font-specification:'Plus Jakarta Sans Ultra-Bold';letter-spacing:0px;stroke-width:0.07;stroke-linecap:round;stroke-linejoin:round;paint-order:fill markers stroke"
           d="m 38.515349,76.851508 v 0.794783 0.223759 h 7.467244 7.698238 2.405538 4.501534 2.406055 5.36608 v -0.223759 h -5.36608 v -0.794783 h -2.406055 v 0.794783 h -4.501534 v -0.794783 h -2.405538 v 0.794783 h -7.973673 c -0.195181,-0.143907 -0.407516,-0.270482 -0.641305,-0.375688 -0.610538,-0.279398 -1.314178,-0.419095 -2.110982,-0.419095 z m 0,1.241784 v 0.894003 0.223758 h 2.406054 3.032373 2.900598 6.826457 2.405538 4.501534 2.406055 5.36608 v -0.223758 h -5.36608 v -0.894003 h -2.406055 v 0.894003 h -4.501534 v -0.894003 h -2.405538 v 0.894003 h -6.91534 c -0.06898,-0.166542 -0.146151,-0.327345 -0.240812,-0.474907 -0.09631,-0.15013 -0.203406,-0.289126 -0.319877,-0.419096 z m 2.406054,0.853695 h 2.048971 c 0.147721,0 0.285199,0.01508 0.415478,0.04031 h -2.464449 z m -2.406054,0.487309 v 0.894002 0.223759 h 2.406054 3.724837 2.406572 6.628019 2.405538 4.501534 2.406055 5.36608 v -0.223759 h -5.36608 v -0.894002 h -2.406055 v 0.894002 h -4.501534 v -0.894002 h -2.405538 v 0.894002 h -6.63422 c -0.01323,-0.319098 -0.05406,-0.6178 -0.125574,-0.894002 h -2.696476 c 0.07774,0.08247 0.147459,0.172205 0.204638,0.273368 0.111066,0.182464 0.17917,0.389515 0.205156,0.620634 h -3.712952 v -0.894002 z m 0,1.341003 v 0.894002 0.223759 h 2.406054 2.988448 2.92592 6.84506 9.313127 5.36608 v -0.223759 h -5.36608 v -0.894002 h -2.406055 v 0.894002 h -4.501534 v -0.894002 h -2.405538 v 0.894002 h -6.77478 c 0.07802,-0.277454 0.125043,-0.575196 0.140043,-0.894002 h -2.413289 c -0.02743,0.217994 -0.09548,0.415605 -0.203606,0.593246 -0.06342,0.112202 -0.140182,0.212023 -0.229443,0.300756 h -3.278353 v -0.894002 z m 0,1.341004 v 0.894002 0.223759 h 7.408333 7.757149 9.313127 5.36608 v -0.223759 h -5.36608 v -0.894002 h -9.313127 v 0.894002 h -7.537524 c 0.133144,-0.143244 0.258188,-0.294134 0.365869,-0.461988 0.09025,-0.136664 0.169433,-0.280571 0.237195,-0.432014 h -3.525367 c -0.08054,0.0086 -0.164107,0.01292 -0.25063,0.01292 h -2.048971 v -0.01292 z m 0,1.341003 v 0.894002 0.223759 h 2.406054 12.759428 2.405538 4.501534 2.406055 5.36608 v -0.223759 h -5.36608 v -0.894002 h -9.313127 v 0.894002 H 40.921403 v -0.126607 h 2.033468 c 0.786456,0 1.484941,-0.139696 2.095479,-0.419096 0.21493,-0.1003 0.412623,-0.216999 0.595313,-0.348299 z m 17.57102,0.487825 h 4.501534 v 0.406177 h -4.501534 z m -17.57102,0.853178 v 0.894003 0.223759 h 2.406054 12.759428 2.405538 4.501534 2.406055 5.36608 v -0.223759 h -5.36608 v -0.894003 h -2.406055 v 0.894003 h -4.501534 v -0.894003 h -2.405538 v 0.894003 H 40.921403 v -0.894003 z m 0,1.341004 v 0.894002 0.223242 5.17e-4 h 29.844689 v -0.223759 h -0.01085 v -0.894002 h -2.32854 v 0.894002 H 62.99396 v -0.894002 h -2.406055 v 0.894002 h -4.501534 v -0.894002 h -2.405538 v 0.894002 h -3.027205 v -0.894002 h -2.328024 v 0.894002 h -7.404199 v -0.894002 z m 0,1.341003 v 0.894002 0.04134 0.181901 h 29.844689 v -0.223243 h -0.01085 v -0.894002 h -2.32854 v 0.894002 H 62.99396 v -0.894002 h -2.406055 v 0.894002 h -4.501534 v -0.894002 h -2.405538 v 0.894002 h -3.027205 v -0.894002 h -2.328024 v 0.894002 h -7.404199 v -0.894002 z" />
      </g>
    </g>
    <path
       id="text5"
       style="font-weight:800;font-size:15.5222px;line-height:1;font-family:'Plus Jakarta Sans';-inkscape-font-specification:'Plus Jakarta Sans Ultra-Bold';letter-spacing:0px;display:inline;stroke-width:0.07;stroke-linecap:round;stroke-linejoin:round;paint-order:fill markers stroke"
       d="m 47.529399,165.60074 c -0.16236,0 -0.423127,0.0251 -0.580843,0.0636 -0.177356,0.0433 -0.351824,0.0936 -0.522449,0.15193 -0.153619,0.0525 -0.397822,0.15193 -0.542603,0.2253 -0.0083,0.004 -0.01651,0.008 -0.0248,0.0124 -0.1444,0.074 -0.391612,0.13694 -0.553972,0.13694 H 39.47666 c -0.16236,0 -0.379138,-0.0637 -0.497127,-0.11679 -0.737001,-0.28717 -1.252058,-0.38692 -1.816943,-0.41238 -0.162183,-0.007 -0.425718,-0.007 -0.588078,-0.007 H 32.73857 c -0.16236,0 -0.294039,0.13168 -0.294039,0.29404 0,0.1336 -0.131679,0.24184 -0.294039,0.24184 h -2.732133 c -0.162359,0 -0.379138,-0.0637 -0.497127,-0.11679 -0.737,-0.28717 -1.252058,-0.38691 -1.816943,-0.41237 -0.162183,-0.007 -0.425718,-0.007 -0.588078,-0.007 h -3.851445 c -0.0018,0 -0.0033,0.001 -0.0052,0.001 h -0.288871 v 0.29301 0.24288 0.25011 0.001 0.41444 h 0.773596 v -0.001 h 6.57841 c 0.162359,0 0.205129,-0.0975 0.08372,-0.20516 -0.0099,-0.009 -0.01994,-0.0171 -0.02997,-0.0258 -0.122702,-0.10626 -0.09828,-0.18345 0.06408,-0.18345 h 2.309936 c 0.16236,0 0.294039,0.13168 0.294039,0.29404 0,0.0665 0.131679,0.12041 0.294039,0.12041 h 7.042464 c 0.16236,0 0.205129,-0.0975 0.08372,-0.20516 -0.0099,-0.009 -0.01994,-0.0171 -0.02997,-0.0258 -0.122701,-0.10625 -0.09828,-0.18345 0.06408,-0.18345 h 4.961971 c 0.162359,0 0.182359,0.0697 0.04754,0.1602 -0.03785,0.0254 -0.07544,0.0513 -0.112655,0.0775 -0.132702,0.0934 -0.102932,0.17673 0.05943,0.17673 h 7.455359 c 0.16236,0 0.192752,-0.0842 0.06046,-0.17829 -0.03572,-0.0254 -0.07166,-0.0503 -0.108004,-0.0749 -0.134341,-0.0911 -0.114304,-0.16123 0.04806,-0.16123 h 3.01842 c 0.16236,0 0.366226,0.11022 0.45527,0.24598 0.06108,0.0931 0.242266,0.16847 0.404626,0.16847 h 2.177128 c 0.16236,0 0.221571,-0.10985 0.132292,-0.24546 -0.06141,-0.0933 0.02057,-0.16899 0.182934,-0.16899 h 3.098519 c 0.16236,0 0.221734,0.11014 0.132809,0.24598 -0.06091,0.0931 0.02161,0.16847 0.183968,0.16847 h 2.175578 c 0.16236,0 0.365946,-0.11006 0.454752,-0.24598 0.06074,-0.093 0.24175,-0.16847 0.40411,-0.16847 h 9.190137 c 0.16236,0 0.294039,0.13168 0.294039,0.29404 0,0.0665 0.131679,0.12041 0.294038,0.12041 h 1.817977 c 0.16236,0 0.294039,-0.13168 0.294039,-0.29404 0,-0.0665 0.131679,-0.12041 0.294039,-0.12041 h 3.913456 c 0.16236,0 0.294039,0.13168 0.294039,0.29404 0,0.0665 0.131679,0.12041 0.294039,0.12041 h 1.81746 c 0.16236,0 0.294039,-0.13168 0.294039,-0.29404 0,-0.0665 0.131679,-0.12041 0.294039,-0.12041 h 4.25297 c 0.16236,0 0.251963,0.12472 0.199988,0.27854 -0.02537,0.0751 0.08569,0.13591 0.248047,0.13591 h 3.421497 c 0.16236,0 0.251962,-0.12472 0.199988,-0.27854 -0.02537,-0.0751 0.08569,-0.13591 0.248046,-0.13591 h 4.252971 c 0.16236,0 0.294039,0.13168 0.294039,0.29404 0,0.0665 0.131679,0.12041 0.294039,0.12041 h 7.395928 c 0.16236,0 0.21044,-0.10243 0.093,-0.21446 -0.003,-0.003 -0.006,-0.005 -0.009,-0.008 -0.11789,-0.11155 -0.0911,-0.19224 0.0713,-0.19224 h 3.77238 v 0.001 h 1.33945 v -0.25115 h -5.2e-4 c 1e-5,-3.5e-4 0,-6.9e-4 0,-10e-4 h -5.50612 c -0.16236,0 -0.38538,-0.0718 -0.51315,-0.1323 -0.70628,-0.27875 -1.20095,-0.37259 -1.75493,-0.39687 -0.16219,-0.007 -0.42572,-0.006 -0.58808,-0.006 h -4.301025 c -0.16236,0 -0.294039,0.13168 -0.294039,0.29404 0,0.1336 -0.131679,0.24184 -0.294039,0.24184 h -4.33772 c -0.16236,0 -0.336037,-0.12474 -0.38809,-0.27853 -0.04812,-0.14218 -0.219012,-0.25735 -0.381372,-0.25735 h -2.609143 c -0.16236,0 -0.336037,0.12474 -0.38809,0.27853 -0.04812,0.14218 -0.219012,0.25735 -0.381372,0.25735 h -4.33772 c -0.162359,0 -0.294039,-0.13168 -0.294039,-0.29404 0,-0.1336 -0.131679,-0.24184 -0.294038,-0.24184 h -1.817461 c -0.162359,0 -0.294038,0.13168 -0.294038,0.29404 0,0.1336 -0.13168,0.24184 -0.294039,0.24184 h -3.913457 c -0.162359,0 -0.294038,-0.13168 -0.294038,-0.29404 0,-0.1336 -0.13168,-0.24184 -0.294039,-0.24184 h -1.817977 c -0.16236,0 -0.294039,0.13168 -0.294039,0.29404 0,0.1336 -0.131679,0.24184 -0.294039,0.24184 h -9.026323 c -0.162359,0 -0.222172,-0.11008 -0.133325,-0.24598 l 0.02894,-0.0439 c 0.08885,-0.1359 0.02903,-0.24598 -0.133325,-0.24598 h -2.174544 c -0.16236,0 -0.365906,0.11008 -0.454753,0.24598 l -0.02894,0.0439 c -0.08885,0.1359 -0.292393,0.24598 -0.454752,0.24598 h -3.428215 c -0.16236,0 -0.366056,-0.10981 -0.455269,-0.24546 l -0.02946,-0.0444 C 57.942305,165.76522 57.738174,165.655 57.575814,165.655 H 55.40127 c -0.16236,0 -0.22184,0.11021 -0.132809,0.24598 l 0.02894,0.0439 c 0.08903,0.13577 0.02955,0.24598 -0.132809,0.24598 h -3.294889 c -0.16236,0 -0.409534,-0.0628 -0.553971,-0.13694 -0.008,-0.004 -0.01625,-0.008 -0.02429,-0.0124 -0.144648,-0.0734 -0.388466,-0.17281 -0.542086,-0.2253 -0.170625,-0.0583 -0.345093,-0.10864 -0.522449,-0.15193 -0.157713,-0.0385 -0.418483,-0.0636 -0.580843,-0.0636 z m -25.158671,1.50689 v 0.29404 c -2e-6,3.5e-4 0,6.8e-4 0,0.001 v 0.002 0.29352 0.25115 5.2e-4 0.41341 h 0.289904 c 0.0015,1e-5 0.0027,5.1e-4 0.0041,5.1e-4 h 1.817977 c 0.16236,0 0.294039,-0.13168 0.294039,-0.29404 0,-0.0662 0.131679,-0.11988 0.294039,-0.11988 h 2.338875 l 0.300757,0.003 c 0.248479,0.17646 0.256705,0.18441 0.2651,0.19224 0.118525,0.11058 0.327016,0.2191 0.489376,0.2191 h 2.040703 c 0.162359,0 0.264372,-0.12824 0.212906,-0.28215 -0.02434,-0.0728 0.08672,-0.13177 0.249081,-0.13177 h 1.182873 c 0.16236,0 0.294039,0.13167 0.294039,0.29403 0,0.0662 0.131679,0.11989 0.294039,0.11989 h 1.817977 c 0.16236,0 0.294039,-0.13168 0.294039,-0.29404 0,-0.0662 0.131679,-0.11988 0.294039,-0.11988 h 2.323372 l 0.300757,0.003 c 0.248479,0.17646 0.256705,0.1844 0.2651,0.19223 0.118525,0.11058 0.327016,0.21911 0.489376,0.21911 h 2.040702 c 0.16236,0 0.264371,-0.12824 0.212907,-0.28215 -0.02434,-0.0728 0.08672,-0.13178 0.249081,-0.13178 h 2.231905 c 0.16236,0 0.216287,0.10651 0.125057,0.24081 -0.06391,0.0941 0.02058,0.17312 0.182934,0.17312 h 2.482536 c 0.16236,0 0.399154,-0.0792 0.536401,-0.16588 0.06706,-0.0423 0.135749,-0.0827 0.205673,-0.12041 0.142791,-0.0771 0.396262,-0.12764 0.558622,-0.12764 h 2.462899 c 0.162359,0 0.416159,0.0497 0.559655,0.12558 0.07347,0.0388 0.145372,0.0798 0.215491,0.1235 0.13775,0.0859 0.375075,0.16485 0.537435,0.16485 h 2.475818 c 0.16236,0 0.226564,-0.11311 0.133325,-0.24598 -0.06535,-0.0931 0.01231,-0.16795 0.174666,-0.16795 h 2.410189 c 0.16236,0 0.366268,0.11019 0.45527,0.24598 0.06083,0.0928 0.241749,0.16795 0.404109,0.16795 h 2.179712 c 0.16236,0 0.221531,-0.10982 0.132292,-0.24546 -0.06117,-0.093 0.02109,-0.16847 0.183451,-0.16847 h 1.119828 c 0.16236,0 0.221692,0.11011 0.132809,0.24598 -0.06067,0.0927 0.02212,0.16795 0.184485,0.16795 h 2.178161 c 0.16236,0 0.365989,-0.11004 0.454753,-0.24598 0.0605,-0.0927 0.241233,-0.16795 0.403593,-0.16795 h 10.174573 c 0.16236,0 0.294039,0.13168 0.294039,0.29404 0,0.0662 0.131679,0.11989 0.294038,0.11989 h 1.817977 c 0.16236,0 0.294039,-0.13168 0.294039,-0.29404 0,-0.0662 0.131679,-0.11989 0.294039,-0.11989 h 3.913456 c 0.16236,0 0.294039,0.13168 0.294039,0.29404 0,0.0662 0.131679,0.11989 0.294039,0.11989 h 1.81746 c 0.16236,0 0.294039,-0.13168 0.294039,-0.29404 0,-0.0662 0.131679,-0.11989 0.294039,-0.11989 h 3.742924 c 0.16236,0 0.252021,0.12475 0.199988,0.27854 -0.02531,0.0748 0.08569,0.13539 0.248047,0.13539 h 1.90531 c 0.16236,0 0.303064,-0.0275 0.314193,-0.0615 l 0.02015,0.0615 h 2.201933 c 0.16236,0 0.252021,-0.12475 0.199988,-0.27854 -0.02531,-0.0748 0.08569,-0.13539 0.248047,-0.13539 h 3.742924 c 0.16236,0 0.294039,0.13168 0.294039,0.29404 0,0.0662 0.131679,0.11989 0.294039,0.11989 h 1.81746 c 0.16236,0 0.294039,-0.13168 0.294039,-0.29404 0,-0.0662 0.131675,-0.11989 0.294037,-0.11989 h 2.89026 l 0.35502,0.0491 c 0.23104,0.29932 0.38799,0.36484 0.55035,0.36484 h 1.8464 c 0.16236,0 0.27184,-0.12979 0.22893,-0.28629 -0.0193,-0.0704 0.0965,-0.12764 0.2589,-0.12764 h 2.78846 1.04541 0.29404 v -0.25115 h -1.33945 -2.86236 c -0.16236,0 -0.33709,-0.1247 -0.40566,-0.27181 -0.0537,-0.11524 -0.14532,-0.25403 -0.1881,-0.31885 h -7.867736 c -0.16236,0 -0.294039,0.13168 -0.294039,0.29404 v 0.003 c 0,0.16236 -0.131679,0.29404 -0.294039,0.29404 h -3.827674 c -0.162359,0 -0.336021,-0.12475 -0.38809,-0.27853 l -0.01189,-0.0336 c -0.05207,-0.15378 -0.22573,-0.27854 -0.38809,-0.27854 h -3.592029 c -0.16236,0 -0.336021,0.12476 -0.38809,0.27854 l -0.01189,0.0336 c -0.05207,0.15378 -0.22573,0.27853 -0.38809,0.27853 H 84.22272 c -0.16236,0 -0.294039,-0.13168 -0.294039,-0.29404 v -0.003 c 0,-0.16236 -0.131679,-0.29404 -0.294039,-0.29404 h -1.81746 c -0.16236,0 -0.294039,0.13168 -0.294039,0.29404 v 0.003 c 0,0.16236 -0.131679,0.29404 -0.294039,0.29404 h -3.913456 c -0.16236,0 -0.294039,-0.13168 -0.294039,-0.29404 v -0.003 c 0,-0.16236 -0.131679,-0.29404 -0.294039,-0.29404 h -1.817977 c -0.162359,0 -0.294038,0.13168 -0.294038,0.29404 v 0.003 c 0,0.16236 -0.131679,0.29404 -0.294039,0.29404 H 64.31132 c -0.16236,0 -0.222065,-0.11054 -0.133325,-0.2465 l 0.06408,-0.0982 c 0.08874,-0.13596 0.02904,-0.24598 -0.133326,-0.24598 h -2.176611 c -0.16236,0 -0.366363,0.11012 -0.455269,0.24598 l -0.0646,0.0987 c -0.08891,0.13586 -0.292393,0.24598 -0.454752,0.24598 h -1.449524 c -0.16236,0 -0.366549,-0.10983 -0.455787,-0.24546 l -0.06511,-0.0997 c -0.08924,-0.13563 -0.293426,-0.24546 -0.455786,-0.24546 h -2.177128 c -0.16236,0 -0.22188,0.10971 -0.132808,0.24546 l 0.06511,0.0992 c 0.08907,0.13575 0.02955,0.24598 -0.132809,0.24598 H 53.72902 c -0.16236,0 -0.375235,-0.10364 -0.482141,-0.22582 -0.02525,-0.0288 -0.05055,-0.0575 -0.07648,-0.0858 -0.109541,-0.1198 -0.240882,-0.24001 -0.282153,-0.27905 H 44.56679 c -0.16236,0 -0.33079,0.0286 -0.372071,0.0682 -0.228136,0.23988 -0.25271,0.26756 -0.276985,0.29559 -0.106281,0.12271 -0.318748,0.22686 -0.481108,0.22686 h -2.509407 c -0.16236,0 -0.343968,-0.12255 -0.420647,-0.26562 -0.03537,-0.066 -0.137461,-0.21049 -0.224275,-0.32504 H 32.73857 c -0.16236,0 -0.294039,0.13168 -0.294039,0.29404 v 0.003 c 0,0.16236 -0.131679,0.29352 -0.294039,0.29352 h -1.281575 c -0.16236,0 -0.343967,-0.12203 -0.420646,-0.2651 -0.03537,-0.066 -0.137462,-0.21101 -0.224276,-0.32556 l -7.079671,-5.2e-4 v -10e-4 z m 0,1.50688 v 0.29404 0.003 0.29353 0.25114 5.2e-4 0.41341 h 0.289904 c 0.0015,1e-5 0.0027,5.2e-4 0.0041,5.2e-4 h 1.817977 c 0.16236,0 0.294039,-0.13168 0.294039,-0.29404 0,-0.0662 0.131679,-0.11989 0.294039,-0.11989 h 3.127458 c 0.16236,0 0.287537,0.13222 0.249597,0.2899 -0.01661,0.069 0.09654,0.12403 0.258899,0.12403 h 1.875854 c 0.16236,0 0.308235,-0.13133 0.31471,-0.29352 0.0027,-0.0667 0.135813,-0.12041 0.298173,-0.12041 h 0.95498 c 0.16236,0 0.294039,0.13116 0.294039,0.29352 0,0.0662 0.131679,0.12041 0.294039,0.12041 h 1.817977 c 0.16236,0 0.294039,-0.13168 0.294039,-0.29404 0,-0.0662 0.131679,-0.11989 0.294039,-0.11989 h 3.111955 c 0.162359,0 0.287537,0.13222 0.249597,0.2899 -0.01661,0.069 0.09654,0.12403 0.258899,0.12403 h 1.876371 c 0.16236,0 0.308219,-0.13133 0.314709,-0.29352 0.0027,-0.0667 0.135814,-0.12041 0.298173,-0.12041 h 1.234034 c 0.162359,0 0.249801,0.12385 0.200504,0.27854 -0.02359,0.074 0.09293,0.13539 0.255282,0.13539 h 1.923397 c 0.162359,0 0.345692,-0.12164 0.425297,-0.26303 0.04714,-0.0837 0.217978,-0.1509 0.380338,-0.1509 h 5.829102 c 0.16236,0 0.362645,0.11236 0.437699,0.25632 0.04441,0.0852 0.205576,0.15761 0.367936,0.15761 h 1.916679 c 0.16236,0 0.257928,-0.12715 0.203605,-0.28009 -0.02627,-0.074 0.08518,-0.13384 0.24753,-0.13384 h 2.630848 c 0.162359,0 0.366267,0.10967 0.455269,0.24546 0.06083,0.0928 0.24175,0.16847 0.40411,0.16847 h 4.138248 c 0.16236,0 0.365989,-0.11056 0.454753,-0.2465 0.0605,-0.0927 0.241233,-0.16743 0.403593,-0.16743 h 11.159009 c 0.16236,0 0.294039,0.13116 0.294039,0.29352 0,0.0662 0.131679,0.12041 0.294038,0.12041 h 1.817977 c 0.16236,0 0.294039,-0.13168 0.294039,-0.29404 0,-0.0662 0.131679,-0.11989 0.294039,-0.11989 h 3.913456 c 0.16236,0 0.294039,0.13116 0.294039,0.29352 0,0.0662 0.131679,0.12041 0.294039,0.12041 h 1.81746 c 0.16236,0 0.294039,-0.13168 0.294039,-0.29404 0,-0.0662 0.131679,-0.11989 0.294039,-0.11989 h 3.233394 c 0.16236,0 0.252021,0.12423 0.199988,0.27802 -0.02531,0.0748 0.08569,0.13591 0.248047,0.13591 h 1.922363 c 0.16236,0 0.335032,-0.12526 0.385507,-0.27957 0.0243,-0.0743 0.175604,-0.13436 0.337963,-0.13436 h 0.163298 c 0.16236,0 0.334521,0.12508 0.384473,0.27957 0.02397,0.0741 0.175087,0.13436 0.337447,0.13436 h 1.929598 c 0.16236,0 0.25202,-0.12475 0.199988,-0.27854 -0.02531,-0.0748 0.08569,-0.13539 0.248046,-0.13539 h 3.233395 c 0.16236,0 0.294039,0.13116 0.294039,0.29352 0,0.0662 0.131679,0.12041 0.294039,0.12041 h 1.81746 c 0.16236,0 0.294039,-0.13168 0.294039,-0.29404 0,-0.0662 0.131681,-0.11989 0.294044,-0.11989 h 3.13159 c 0.16236,0 0.23198,0.11993 0.11524,0.23203 -9.9e-4,9.5e-4 -0.0992,0.0941 -0.2434,0.16743 -0.016,0.008 0.10274,0.0145 0.2651,0.0145 h 2.29392 c 0.16236,0 0.33659,-0.12512 0.37104,-0.28371 0.0155,-0.0716 0.15648,-0.13022 0.31884,-0.13022 h 3.7114 c 6e-4,0 9.5e-4,-5.1e-4 0.002,-5.2e-4 h 0.29249 v -0.25063 -5.1e-4 h -1.33945 v 5.1e-4 h -2.64532 c -0.16236,0 -0.28009,-0.0742 -0.28009,-0.1664 -0.0176,-0.36585 -0.15493,-0.42426 -0.31729,-0.42426 h -1.81332 c -0.16236,0 -0.27544,0.0991 -0.27544,0.22221 -0.0442,0.33421 -0.18594,0.36845 -0.3483,0.36845 h -3.23856 c -0.162363,0 -0.294044,-0.13168 -0.294044,-0.29404 v -0.003 c 0,-0.16236 -0.131679,-0.29404 -0.294039,-0.29404 h -1.81746 c -0.16236,0 -0.294039,0.13168 -0.294039,0.29404 v 0.003 c 0,0.16236 -0.131679,0.29404 -0.294039,0.29404 h -3.318144 c -0.16236,0 -0.336021,-0.12475 -0.38809,-0.27853 l -0.01189,-0.0341 c -0.05207,-0.15378 -0.22573,-0.27802 -0.38809,-0.27802 h -1.911511 c -0.16236,0 -0.253607,0.1251 -0.203605,0.27957 l 0.01034,0.031 c 0.05,0.15447 -0.04124,0.28008 -0.203605,0.28008 -0.162143,0 -0.25294,-0.12522 -0.202571,-0.27957 l 0.01085,-0.032 c 0.05037,-0.15435 -0.04073,-0.27905 -0.203089,-0.27905 H 88.32939 c -0.162359,0 -0.336021,0.12424 -0.38809,0.27802 l -0.01188,0.0341 c -0.05207,0.15378 -0.22573,0.27853 -0.38809,0.27853 h -3.318144 c -0.16236,0 -0.294039,-0.13168 -0.294039,-0.29404 v -0.003 c 0,-0.16236 -0.131679,-0.29404 -0.294039,-0.29404 h -1.81746 c -0.16236,0 -0.294039,0.13168 -0.294039,0.29404 v 0.003 c 0,0.16236 -0.131679,0.29404 -0.294039,0.29404 h -3.913456 c -0.16236,0 -0.294039,-0.13168 -0.294039,-0.29404 v -0.003 c 0,-0.16236 -0.131679,-0.29404 -0.294039,-0.29404 h -1.817977 c -0.162359,0 -0.294038,0.13168 -0.294038,0.29404 v 0.003 c 0,0.16236 -0.131679,0.29404 -0.294039,0.29404 H 63.326884 c -0.16236,0 -0.222063,-0.11053 -0.133325,-0.24649 l 0.06408,-0.0982 c 0.08874,-0.13596 0.02904,-0.24598 -0.133326,-0.24598 h -2.178161 c -0.16236,0 -0.366365,0.11012 -0.45527,0.24598 l -0.06408,0.0987 c -0.08891,0.13586 -0.188301,0.24598 -0.221692,0.24598 l -0.22686,-0.3452 c -0.08915,-0.13569 -0.292909,-0.24546 -0.455269,-0.24546 h -2.180746 c -0.16236,0 -0.221879,0.10971 -0.132808,0.24546 l 0.06511,0.0992 c 0.08907,0.13575 0.02955,0.24598 -0.132808,0.24598 H 54.59253 c -0.162359,0 -0.307924,-0.063 -0.338997,-0.13539 -0.172086,-0.37206 -0.347687,-0.45527 -0.510046,-0.45527 h -2.30942 c -0.16236,0 -0.243419,0.0314 -0.192237,0.0827 0.211634,0.23521 0.225782,0.25257 0.239779,0.27027 0.100694,0.1273 0.04144,0.23771 -0.120923,0.23771 h -5.545914 c -0.16236,0 -0.221621,-0.1104 -0.120923,-0.23771 0.014,-0.0177 0.02803,-0.0353 0.04237,-0.0527 0.103196,-0.12526 0.245809,-0.25106 0.29869,-0.30024 h -2.613277 c -0.16236,0 -0.356956,0.11572 -0.427364,0.262 -0.05085,0.10566 -0.103575,0.25517 -0.131258,0.32866 h -1.614372 c -0.16236,0 -0.29753,-0.13166 -0.310059,-0.29352 -1.33e-4,-0.002 -3.81e-4,-0.003 -5.16e-4,-0.005 -0.01269,-0.16181 -0.164752,-0.29197 -0.327112,-0.29197 h -1.930632 c -0.16236,0 -0.232252,0.11828 -0.190686,0.27492 0.0023,0.009 0.0045,0.0171 0.0067,0.0258 0.03898,0.15744 -0.08465,0.2899 -0.247013,0.2899 H 35.1446 c -0.16236,0 -0.294039,-0.13168 -0.294039,-0.29404 v -0.003 c 0,-0.16236 -0.131679,-0.29404 -0.294039,-0.29404 H 32.73857 c -0.16236,0 -0.294039,0.13168 -0.294039,0.29404 v 0.003 c 0,0.16236 -0.131679,0.29404 -0.294039,0.29404 h -0.960148 c -0.16236,0 -0.297529,-0.13166 -0.310058,-0.29352 -1.33e-4,-0.002 -3.82e-4,-0.003 -5.17e-4,-0.005 -0.01269,-0.16181 -0.164752,-0.29197 -0.327112,-0.29197 h -1.930631 c -0.16236,0 -0.232251,0.11828 -0.190686,0.27492 0.0023,0.009 0.0045,0.0171 0.0067,0.0258 0.03898,0.15744 -0.08465,0.2899 -0.247013,0.2899 h -3.120223 c -0.16236,0 -0.294039,-0.13168 -0.294039,-0.29404 v -0.003 c 0,-0.16236 -0.131679,-0.29352 -0.294039,-0.29352 h -1.338419 v -5.2e-4 z m 0,1.50689 v 0.29404 5.1e-4 0.003 0.29352 0.25115 5.1e-4 0.41393 h 0.289904 c 0.0015,1e-5 0.0027,5.2e-4 0.0041,5.2e-4 h 7.386113 c 0.16236,0 0.295548,-0.0264 0.313676,-0.0264 0.170915,-0.33021 0.328566,-0.38809 0.490926,-0.38809 h 1.295011 c 0.16236,0 0.294039,0.13168 0.294039,0.29404 0,0.0665 0.131679,0.12041 0.294039,0.12041 h 7.381979 c 0.162359,0 0.294784,-0.0109 0.302307,-0.0109 0.173259,-0.33893 0.333217,-0.4036 0.495577,-0.4036 h 1.269173 c 0.16236,0 0.282326,0.13082 0.274918,0.29301 -0.0031,0.0668 0.128062,0.12144 0.290422,0.12144 h 1.820044 c 0.16236,0 0.297854,-0.13191 0.317293,-0.29301 0.0081,-0.0671 0.146149,-0.12144 0.308509,-0.12144 h 6.77788 c 0.16236,0 0.313837,0.1301 0.326079,0.29198 0.0051,0.0674 0.137363,0.12247 0.299723,0.12247 h 1.820044 c 0.16236,0 0.291761,-0.13165 0.279569,-0.29352 -0.005,-0.0668 0.122378,-0.12093 0.284738,-0.12093 h 3.307808 c 0.16236,0 0.366225,0.10971 0.455269,0.24547 0.06108,0.0931 0.242267,0.16898 0.404627,0.16898 h 2.164726 c 0.162359,0 0.365946,-0.11006 0.454752,-0.24598 0.06075,-0.093 0.24175,-0.16847 0.40411,-0.16847 h 12.143445 c 0.16236,0 0.294039,0.13168 0.294039,0.29404 0,0.0665 0.131679,0.12041 0.294038,0.12041 h 8.725049 c 0.16236,0 0.294039,-0.13168 0.294039,-0.29404 0,-0.0665 0.131679,-0.12041 0.294039,-0.12041 h 2.723348 c 0.16236,0 0.251963,0.12472 0.199988,0.27854 -0.02537,0.0751 0.08569,0.13591 0.248047,0.13591 h 1.94045 c 0.16236,0 0.335087,-0.12524 0.385506,-0.27957 0.02436,-0.0746 0.175604,-0.13488 0.337964,-0.13488 h 1.142566 c 0.16236,0 0.334402,0.12512 0.384472,0.27957 0.02413,0.0744 0.175604,0.13488 0.337964,0.13488 h 1.951819 c 0.16236,0 0.251963,-0.12472 0.199988,-0.27854 -0.02537,-0.0751 0.08569,-0.13591 0.248047,-0.13591 h 2.723348 c 0.16236,0 0.294039,0.13168 0.294039,0.29404 0,0.0665 0.131679,0.12041 0.294039,0.12041 h 7.762323 c 0.16236,0 0.20742,-0.0574 0.24804,-0.0574 -0.33363,-0.28074 -0.42851,-0.35709 -0.41961,-0.35709 h 4.77852 c 6e-4,0 9.5e-4,-5.1e-4 0.002,-5.1e-4 h 0.29249 v -0.25063 -5.2e-4 h -1.33945 v 5.2e-4 h -3.22926 c -0.16236,0 -0.1959,-0.083 -0.11524,-0.21446 0.16875,-0.32328 0.0595,-0.3762 -0.10284,-0.3762 h -7.876523 c -0.16236,0 -0.294039,0.13167 -0.294039,0.29403 v 0.003 c 0,0.16236 -0.131679,0.29404 -0.294039,0.29404 h -2.808614 c -0.16236,0 -0.336142,-0.12472 -0.38809,-0.27854 l -0.01137,-0.0336 c -0.05195,-0.15382 -0.22573,-0.27853 -0.38809,-0.27853 h -1.933732 c -0.16236,0 -0.253608,0.12561 -0.203605,0.28008 l 0.01033,0.031 c 0.05,0.15447 -0.04124,0.27957 -0.203605,0.27957 h -0.979269 c -0.162359,0 -0.253457,-0.12471 -0.203088,-0.27906 l 0.01085,-0.032 c 0.05037,-0.15435 -0.04073,-0.27957 -0.203088,-0.27957 h -1.925981 c -0.16236,0 -0.336142,0.12471 -0.38809,0.27853 l -0.01137,0.0336 c -0.05195,0.15382 -0.22573,0.27854 -0.38809,0.27854 h -2.808614 c -0.16236,0 -0.294039,-0.13168 -0.294039,-0.29404 v -0.003 c 0,-0.16236 -0.131679,-0.29403 -0.294039,-0.29403 h -1.81746 c -0.16236,0 -0.294039,0.13167 -0.294039,0.29403 0,0.13132 -0.131679,0.23772 -0.294039,0.23772 h -3.913456 c -0.16236,0 -0.294039,-0.13168 -0.294039,-0.29404 0,-0.13132 -0.131679,-0.23771 -0.294039,-0.23771 h -1.817977 c -0.162359,0 -0.294038,0.13167 -0.294038,0.29403 v 0.003 c 0,0.16236 -0.131679,0.29404 -0.294039,0.29404 H 62.341931 c -0.16236,0 -0.222148,-0.11007 -0.133325,-0.24598 l 0.06459,-0.0982 c 0.08882,-0.13591 0.02904,-0.24649 -0.133325,-0.24649 h -3.80907 c -0.162359,0 -0.221797,0.11018 -0.132808,0.24598 l 0.0646,0.0992 c 0.08899,0.1358 0.02955,0.24547 -0.132809,0.24547 H 54.96977 c -0.16236,0 -0.308135,-0.13056 -0.333313,-0.29094 -5.37e-4,-0.003 -10e-4,-0.007 -0.0015,-0.0103 -0.02545,-0.16033 -0.184906,-0.28938 -0.347266,-0.28938 h -1.898075 c -0.16236,0 -0.250722,0.12493 -0.210323,0.28215 0.0018,0.007 0.0035,0.0141 0.0052,0.0212 0.03954,0.15744 -0.07019,0.28732 -0.232544,0.28732 h -6.728272 c -0.16236,0 -0.272087,-0.12988 -0.232544,-0.28732 0.0018,-0.007 0.0034,-0.0141 0.0052,-0.0212 0.0404,-0.15722 -0.04796,-0.28215 -0.210323,-0.28215 h -1.903243 c -0.16236,0 -0.321264,0.12889 -0.345716,0.28938 -4.93e-4,0.003 -10e-4,0.006 -0.0016,0.0103 -0.0242,0.16053 -0.168886,0.29145 -0.331246,0.29145 h -1.175639 c -0.162359,0 -0.249277,-0.12409 -0.206189,-0.2806 0.0022,-0.008 0.0046,-0.0154 0.0067,-0.0232 0.04206,-0.15676 -0.0676,-0.28681 -0.22996,-0.28681 h -1.94045 c -0.16236,0 -0.346149,0.0506 -0.315743,0.0506 -0.213135,0.28618 -0.259058,0.33045 -0.307991,0.37207 -0.123509,0.10507 -0.372492,0.16794 -0.534851,0.16794 H 35.14467 c -0.16236,0 -0.294039,-0.13167 -0.294039,-0.29403 v -0.003 c 0,-0.16236 -0.131679,-0.29403 -0.294039,-0.29403 H 32.73857 c -0.16236,0 -0.294039,0.13167 -0.294039,0.29403 v 0.003 c 0,0.16236 -0.131679,0.29403 -0.294039,0.29403 h -1.182356 c -0.16236,0 -0.248584,-0.12367 -0.205156,-0.28008 0.0022,-0.008 0.0046,-0.0163 0.0067,-0.0243 0.04236,-0.15667 -0.06708,-0.28629 -0.229443,-0.28629 h -1.939934 c -0.162359,0 -0.346152,0.0506 -0.315743,0.0506 -0.213133,0.28618 -0.259058,0.33045 -0.307991,0.37207 -0.12351,0.10507 -0.372491,0.16794 -0.534851,0.16794 h -2.370915 c -0.16236,0 -0.294039,-0.13167 -0.294039,-0.29403 v -0.003 c 0,-0.16236 -0.131679,-0.29403 -0.294039,-0.29403 h -1.338419 v -5.2e-4 z m 0.294038,1.50688 c -9.14e-4,0 -0.0017,5.1e-4 -0.0026,5.2e-4 h -0.291455 v 0.29352 5.2e-4 0.002 0.29404 0.25114 0.41445 h 0.294038 0.479558 4.635376 c 0.16236,0 0.42244,-0.0293 0.578259,-0.0749 0.09358,-0.0274 0.185851,-0.057 0.275952,-0.0899 0.152467,-0.0556 0.389398,-0.17018 0.5302,-0.25011 h 2.986381 c 0.16236,0 0.294039,0.13168 0.294039,0.29403 0,0.0665 0.131679,0.12041 0.294039,0.12041 h 6.089551 c 0.16236,0 0.228518,-0.11389 0.147795,-0.25476 -0.0066,-0.0115 0.106613,-0.0791 0.248046,-0.15865 9.7e-4,-5.5e-4 0.13323,-10e-4 0.29559,-10e-4 h 2.740401 c 0.16236,0 0.312738,0.13052 0.343648,0.2899 0.01341,0.0692 0.158551,0.12454 0.320911,0.12454 h 1.900142 c 0.16236,0 0.249733,-0.12398 0.211357,-0.28164 -0.01779,-0.0731 0.100155,-0.1328 0.262516,-0.1328 h 6.57841 c 0.16236,0 0.267428,0.12933 0.222209,0.28525 -0.02095,0.0722 0.0893,0.12919 0.251664,0.12919 h 1.900142 c 0.16236,0 0.323358,-0.1282 0.34985,-0.28835 0.0115,-0.0695 0.152349,-0.12609 0.314709,-0.12609 h 3.004468 c 0.16236,0 0.221732,0.11013 0.132808,0.24598 -0.06091,0.0931 0.02161,0.16846 0.183968,0.16846 h 3.997172 c 0.16236,0 0.222012,-0.10998 0.133326,-0.24598 -0.06058,-0.0929 0.02212,-0.16846 0.184484,-0.16846 h 11.769825 c 0.16236,0 0.294039,0.13168 0.294039,0.29403 0,0.0665 0.131679,0.12041 0.294038,0.12041 h 1.817977 c 0.16236,0 0.294039,-0.0609 0.294039,-0.13591 h 4.207495 c 0.16236,0 0.294039,0.0609 0.294039,0.13591 h 2.111499 c 0.16236,0 0.294039,-0.13116 0.294039,-0.29352 0,-0.0665 0.131679,-0.12092 0.294039,-0.12092 h 2.213302 c 0.16236,0 0.251962,0.12471 0.199988,0.27853 -0.02537,0.0751 0.08568,0.13591 0.248046,0.13591 h 1.959054 c 0.16236,0 0.311159,-0.0539 0.332279,-0.12041 0.09398,-0.28749 0.227798,-0.29403 0.390157,-0.29403 h 2.123385 c 0.16236,0 0.334519,0.12559 0.384473,0.28008 0.0026,0.008 0.02177,0.0678 0.04289,0.13436 h 2.268596 c 0.162359,0 0.251961,-0.1242 0.199987,-0.27802 -0.02537,-0.0751 0.08568,-0.13642 0.248047,-0.13642 h 2.213302 c 0.16236,0 0.294039,0.13168 0.294039,0.29403 0,0.0665 0.131679,0.12041 0.294039,0.12041 h 1.81746 c 0.16236,0 0.294039,-0.13116 0.294039,-0.29352 0,-0.0665 0.131682,-0.12092 0.294038,-0.12092 h 3.28094 l 0.35243,0.046 c 0.23298,0.30344 0.39678,0.36897 0.55914,0.36897 h 1.91409 c 0.16236,0 0.27143,-0.13011 0.231,-0.28732 -0.0182,-0.0707 0.0966,-0.12713 0.2589,-0.12713 h 2.32182 1.04541 0.29404 v -0.25114 h -1.33945 -2.42104 c -0.16236,0 -0.34564,-0.12194 -0.42582,-0.26304 -0.0164,-0.0288 -0.0337,-0.0573 -0.0512,-0.0858 -0.0851,-0.13816 -0.29859,-0.24185 -0.46095,-0.24185 h -7.964887 c -0.16236,0 -0.294039,0.13168 -0.294039,0.29404 v 0.002 c 0,0.16236 -0.131679,0.29404 -0.294039,0.29404 h -2.298568 c -0.16236,0 -0.336102,-0.12473 -0.38809,-0.27854 l -0.01137,-0.0331 c -0.05199,-0.15381 -0.22573,-0.27854 -0.38809,-0.27854 H 92.00472 c -0.16236,0 -0.253647,0.12511 -0.203605,0.27957 l 0.01033,0.031 c 0.05004,0.15446 -0.04124,0.27957 -0.203605,0.27957 h -1.960087 c -0.16236,0 -0.252981,-0.12523 -0.202572,-0.27957 l 0.0098,-0.031 c 0.05041,-0.15434 -0.04022,-0.27957 -0.202572,-0.27957 h -1.94355 c -0.16236,0 -0.336102,0.12473 -0.38809,0.27854 l -0.01137,0.0331 c -0.05199,0.15381 -0.22573,0.27854 -0.38809,0.27854 h -2.298568 c -0.16236,0 -0.294039,-0.13168 -0.294039,-0.29404 v -0.002 c 0,-0.16236 -0.131679,-0.29352 -0.294039,-0.29352 h -8.725049 c -0.162359,0 -0.294038,0.13116 -0.294038,0.29352 v 0.002 c 0,0.16236 -0.131679,0.29404 -0.294039,0.29404 H 62.387923 c -0.16236,0 -0.366127,-0.10994 -0.454752,-0.24598 l -0.06305,-0.0977 c -0.08863,-0.13604 -0.292392,-0.2465 -0.454752,-0.2465 h -2.356962 c -0.16236,0 -0.365877,0.11011 -0.454753,0.24598 l -0.0646,0.0982 c -0.08888,0.13587 -0.292392,0.24598 -0.454752,0.24598 h -3.127458 c -0.16236,0 -0.276776,-0.13068 -0.26355,-0.29249 1.16e-4,-0.001 -1.16e-4,-0.003 0,-0.004 0.01311,-0.16181 -0.115142,-0.29352 -0.277502,-0.29352 h -1.826245 c -0.16236,0 -0.298594,0.13171 -0.316777,0.29301 -2.34e-4,0.002 -7.96e-4,0.004 -0.001,0.006 -0.0184,0.16129 -0.173537,0.29094 -0.335897,0.29094 h -6.696232 c -0.16236,0 -0.317492,-0.12965 -0.335897,-0.29094 -2.36e-4,-0.002 -7.99e-4,-0.004 -0.001,-0.006 -0.01818,-0.16131 -0.154417,-0.29301 -0.316777,-0.29301 h -1.826245 c -0.16236,0 -0.290624,0.13171 -0.277503,0.29352 1.16e-4,0.001 -1.16e-4,0.003 0,0.004 0.01323,0.1618 -0.10119,0.29249 -0.263549,0.29249 H 39.9077 c -0.16236,0 -0.188112,-0.0783 -0.06718,-0.18655 0.06524,-0.0584 0.128447,-0.1196 0.189136,-0.18294 0.112294,-0.1172 0.06211,-0.22066 -0.100252,-0.22066 H 32.73857 c -0.16236,0 -0.294039,0.13168 -0.294039,0.29404 v 0.002 c 0,0.16236 -0.131679,0.29404 -0.294039,0.29404 H 29.84314 c -0.16236,0 -0.188068,-0.0787 -0.06718,-0.18707 0.06511,-0.0583 0.127871,-0.11888 0.188102,-0.1819 0.112146,-0.11733 0.06159,-0.22118 -0.100769,-0.22118 z m -0.294038,1.50741 v 0.29403 0.002 0.29404 0.25115 0.41444 h 0.294038 0.479558 1.338419 c 0.16236,0 0.294039,-0.13168 0.294039,-0.29404 0,-0.0665 0.131679,-0.1204 0.294039,-0.1204 h 7.079671 c 0.16236,0 0.294039,0.13168 0.294039,0.29404 0,0.0665 0.131679,0.1204 0.294039,0.1204 h 1.817977 c 0.16236,0 0.294039,-0.13168 0.294039,-0.29404 0,-0.0665 0.131679,-0.1204 0.294039,-0.1204 h 1.650028 c 0.16236,0 0.358386,0.11465 0.4377,0.25631 0.04883,0.0872 0.220045,0.15813 0.382405,0.15813 h 2.075326 c 0.16236,0 0.228443,-0.11436 0.147794,-0.25528 -0.05035,-0.088 0.04073,-0.15916 0.203089,-0.15916 h 2.680973 c 0.16236,0 0.348611,0.11959 0.42168,0.26458 0.04212,0.0836 0.211261,0.14986 0.37362,0.14986 h 2.390035 c 0.16236,0 0.184369,-0.0741 0.06253,-0.18138 -0.02053,-0.0181 -0.107276,-0.12437 -0.198954,-0.23306 h 5.339725 c 0.16236,0 0.231805,0.0989 0.131258,0.19947 -0.251505,0.20075 -0.13756,0.21497 0.02481,0.21497 h 2.390035 c 0.16236,0 0.358252,-0.11534 0.428915,-0.26148 0.04086,-0.0845 0.205059,-0.15296 0.367419,-0.15296 h 2.480986 c 0.162359,0 0.221733,0.11014 0.132808,0.24598 -0.06091,0.0931 0.02161,0.16846 0.183968,0.16846 h 2.184363 c 0.16236,0 0.366507,-0.11037 0.455786,-0.24598 0.06141,-0.0933 0.242783,-0.16846 0.405143,-0.16846 0.0985,0 0.250311,0.10999 0.338998,0.24598 0.06058,0.0929 0.241233,0.16846 0.403593,0.16846 h 2.176611 c 0.16236,0 0.22241,-0.11041 0.133842,-0.24649 -0.06041,-0.0928 0.02213,-0.16795 0.184485,-0.16795 h 10.787972 c 0.16236,0 0.294039,0.13168 0.294039,0.29404 0,0.0665 0.131679,0.1204 0.294038,0.1204 h 1.817977 c 0.16236,0 0.294039,-0.13168 0.294039,-0.29404 0,-0.0665 0.131679,-0.1204 0.294039,-0.1204 h 3.913456 c 0.16236,0 0.294039,0.13168 0.294039,0.29404 0,0.0665 0.131679,0.1204 0.294039,0.1204 h 1.81746 c 0.16236,0 0.294039,-0.13168 0.294039,-0.29404 0,-0.0665 0.131679,-0.1204 0.294039,-0.1204 h 1.703772 c 0.16236,0 0.251963,0.12471 0.199988,0.27853 -0.02537,0.0751 0.08569,0.13591 0.248047,0.13591 h 8.519893 c 0.16236,0 0.251963,-0.12471 0.199988,-0.27853 -0.02537,-0.0751 0.08569,-0.13591 0.248047,-0.13591 h 1.703772 c 0.16236,0 0.294039,0.13168 0.294039,0.29404 0,0.0665 0.131679,0.1204 0.294039,0.1204 h 1.81746 c 0.16236,0 0.294039,-0.13168 0.294039,-0.29404 0,-0.0665 0.131678,-0.1204 0.294044,-0.1204 h 3.72949 c 0.16236,0 0.26962,0.13064 0.2067,0.28008 -0.032,0.0761 0.0655,0.13436 0.2279,0.13436 h 1.9482 c 0.16236,0 0.31234,-0.13051 0.32194,-0.29249 0.004,-0.0674 0.13995,-0.12195 0.30231,-0.12195 h 2.18178 1.04541 0.29404 v -0.25115 h -1.33945 -2.15956 c -0.16236,0 -0.28525,-0.0481 -0.28525,-0.108 -0.0255,-0.39781 -0.16734,-0.48214 -0.3297,-0.48214 h -1.85312 c -0.16236,0 -0.2539,0.12628 -0.23461,0.28732 0.0128,0.10685 0.002,0.24283 -0.002,0.30282 h -4.05453 c -0.16236,0 -0.294041,-0.13168 -0.294041,-0.29404 v -0.002 c 0,-0.16236 -0.131679,-0.29403 -0.294039,-0.29403 h -1.81746 c -0.16236,0 -0.294039,0.13167 -0.294039,0.29403 v 0.002 c 0,0.16236 -0.131679,0.29404 -0.294039,0.29404 h -1.789038 c -0.16236,0 -0.336101,-0.12473 -0.38809,-0.27854 l -0.01137,-0.0331 c -0.05199,-0.15381 -0.22573,-0.27853 -0.38809,-0.27853 h -7.670333 c -0.16236,0 -0.336101,0.12472 -0.38809,0.27853 l -0.01137,0.0331 c -0.05199,0.15381 -0.22573,0.27854 -0.38809,0.27854 h -1.789554 c -0.16236,0 -0.293523,-0.13168 -0.293523,-0.29404 v -0.002 c 0,-0.16236 -0.131679,-0.29403 -0.294038,-0.29403 h -1.817977 c -0.16236,0 -0.293522,0.13167 -0.293522,0.29403 v 0.002 c 0,0.16236 -0.13168,0.29404 -0.294039,0.29404 h -3.913973 c -0.16236,0 -0.293522,-0.13168 -0.293522,-0.29404 v -0.002 c 0,-0.16236 -0.13168,-0.29403 -0.294039,-0.29403 H 74.90868 c -0.16236,0 -0.293522,0.13167 -0.293522,0.29403 v 0.002 c 0,0.16236 -0.131679,0.29404 -0.294039,0.29404 h -10.95186 c -0.16236,0 -0.365609,-0.11046 -0.454236,-0.2465 l -0.06356,-0.0977 c -0.08863,-0.13604 -0.291876,-0.24598 -0.454236,-0.24598 H 58.07191 c -0.16236,0 -0.365875,0.11011 -0.454753,0.24598 l -0.06408,0.0982 c -0.08888,0.13587 -0.292393,0.24598 -0.454752,0.24598 h -2.529562 c -0.16236,0 -0.242895,-0.12192 -0.188619,-0.27492 0.0042,-0.0118 0.0083,-0.0233 0.0124,-0.0351 0.05327,-0.15336 -0.04228,-0.28008 -0.204639,-0.28008 h -1.948718 c -0.16236,0 -0.347988,0.12011 -0.426848,0.26199 -0.01496,0.0269 -0.02996,0.0537 -0.04548,0.0801 -0.08215,0.14 -0.289292,0.24805 -0.451652,0.24805 H 45.86025 c -0.16236,0 -0.3695,-0.10805 -0.451652,-0.24805 -0.01552,-0.0264 -0.03103,-0.0532 -0.04599,-0.0801 -0.07886,-0.14188 -0.264488,-0.26199 -0.426848,-0.26199 h -1.948201 c -0.16236,0 -0.258428,0.12672 -0.205155,0.28008 0.0041,0.0119 0.0087,0.0233 0.01292,0.0351 0.05428,0.153 -0.02678,0.27492 -0.189136,0.27492 h -2.708879 c -0.16236,0 -0.359173,-0.11434 -0.439766,-0.25528 l -0.04599,-0.0796 c -0.08059,-0.14094 -0.277407,-0.25528 -0.439767,-0.25528 h -2.059305 c -0.16236,0 -0.22966,0.11462 -0.150379,0.25631 l 0.04289,0.077 c 0.07928,0.14169 0.01198,0.25683 -0.150379,0.25683 h -1.509985 c -0.16236,0 -0.294039,-0.13168 -0.294039,-0.29404 v -0.002 c 0,-0.16236 -0.131679,-0.29403 -0.294039,-0.29403 h -1.81798 c -0.16236,0 -0.294039,0.13167 -0.294039,0.29403 v 0.002 c 0,0.16236 -0.131679,0.29404 -0.294039,0.29404 h -7.079671 c -0.16236,0 -0.294039,-0.13168 -0.294039,-0.29404 v -0.002 c 0,-0.16236 -0.131679,-0.29403 -0.294039,-0.29403 h -1.338419 -0.479558 z m 15.38459,1.50636 c -0.16236,0 -0.229659,0.11515 -0.150378,0.25684 l 0.04289,0.077 c 0.07928,0.14169 0.01198,0.25632 -0.150378,0.25632 h -2.352828 c -0.16236,0 -0.294039,-0.13168 -0.294039,-0.29404 v -0.002 c 0,-0.16236 -0.131679,-0.29404 -0.294039,-0.29404 H 32.73857 c -0.16236,0 -0.294039,0.13168 -0.294039,0.29404 v 0.002 c 0,0.16236 -0.131679,0.29404 -0.294039,0.29404 h -7.079671 c -0.16236,0 -0.294039,-0.13168 -0.294039,-0.29404 v -0.002 c 0,-0.16236 -0.131679,-0.29404 -0.294039,-0.29404 h -1.338419 -0.479558 -0.294038 v 0.29404 0.002 0.29403 0.25115 0.41445 h 0.294038 0.479558 1.338419 c 0.16236,0 0.294039,-0.13168 0.294039,-0.29404 0,-0.0665 0.131679,-0.12041 0.294039,-0.12041 h 7.079671 c 0.16236,0 0.294039,0.13168 0.294039,0.29404 0,0.0665 0.131679,0.12041 0.294039,0.12041 h 1.817977 c 0.16236,0 0.294039,-0.13168 0.294039,-0.29404 0,-0.0665 0.131679,-0.12041 0.294039,-0.12041 h 2.492871 c 0.16236,0 0.358387,0.11465 0.437699,0.25632 0.04883,0.0872 0.220046,0.15813 0.382406,0.15813 h 2.094962 c 0.16236,0 0.228442,-0.11436 0.147795,-0.25528 -0.05035,-0.088 0.04073,-0.15917 0.203088,-0.15917 h 2.823601 c 0.16236,0 0.37204,0.10229 0.483691,0.21394 0.225801,0.19734 0.361123,0.20051 0.523482,0.20051 h 7.695655 c 0.16236,0 0.397732,-0.0817 0.51418,-0.19482 0.0032,-0.003 0.09093,-0.10243 0.198438,-0.21963 h 2.80603 c 0.16236,0 0.221731,0.11013 0.132808,0.24598 -0.06091,0.0931 0.02161,0.16847 0.183968,0.16847 h 2.178679 c 0.16236,0 0.366507,-0.11037 0.455786,-0.24598 0.06141,-0.0933 0.242783,-0.16847 0.405143,-0.16847 h 1.858285 c 0.16236,0 0.366066,0.10998 0.454752,0.24598 0.06058,0.0929 0.241233,0.16847 0.403593,0.16847 h 2.175578 c 0.16236,0 0.222409,-0.11042 0.133842,-0.2465 -0.06041,-0.0928 0.02212,-0.16795 0.184485,-0.16795 h 1.656746 c 0.16236,0 0.294039,0.13168 0.294039,0.29404 0,0.0665 0.131679,0.12041 0.294039,0.12041 h 1.740462 c 0.16236,0 0.294039,-0.13168 0.294039,-0.29404 0,-0.0665 0.131679,-0.12041 0.294039,-0.12041 h 5.232756 c 0.16236,0 0.294039,0.13168 0.294039,0.29404 0,0.0665 0.131679,0.12041 0.294038,0.12041 h 1.817977 c 0.16236,0 0.294039,-0.13168 0.294039,-0.29404 0,-0.0665 0.131679,-0.12041 0.294039,-0.12041 h 3.913456 c 0.16236,0 0.294039,0.13168 0.294039,0.29404 0,0.0665 0.131679,0.12041 0.294039,0.12041 h 1.81746 c 0.16236,0 0.294039,-0.13168 0.294039,-0.29404 0,-0.0665 0.131679,-0.12041 0.294039,-0.12041 h 1.194242 c 0.16236,0 0.251962,0.12472 0.199988,0.27854 -0.02537,0.0751 0.08568,0.13591 0.248047,0.13591 h 2.007113 c 0.16236,0 0.335258,-0.12535 0.386023,-0.27957 0.02458,-0.0747 0.176121,-0.13488 0.33848,-0.13488 h 4.060218 c 0.162359,0 0.335258,0.12484 0.386023,0.27906 0.02458,0.0747 0.17612,0.13539 0.33848,0.13539 h 2.022616 c 0.16236,0 0.251962,-0.12472 0.199988,-0.27854 -0.02537,-0.0751 0.08568,-0.13591 0.248046,-0.13591 h 1.194243 c 0.16236,0 0.294039,0.13168 0.294039,0.29404 0,0.0665 0.131679,0.12041 0.294039,0.12041 h 7.807789 c 0.16236,0 0.37939,-0.10136 0.46561,-0.23875 0.0604,-0.0962 0.23813,-0.1757 0.40049,-0.1757 h 1.36787 c 0.16236,0 0.29404,0.13168 0.29404,0.29404 0,0.0665 0.13168,0.12041 0.29404,0.12041 h 0.69402 1.04593 0.29404 v -0.29404 -0.41961 -0.29404 h -0.29404 -1.04593 -0.69402 c -0.16236,0 -0.29404,0.13168 -0.29404,0.29404 0,0.0266 -0.13168,0.048 -0.29404,0.048 h -1.22421 c -0.16236,0 -0.23586,-0.11838 -0.17725,-0.26975 0.005,-0.0133 0.0105,-0.0268 0.0155,-0.0403 0.0565,-0.15209 -0.0438,-0.28009 -0.20619,-0.28009 h -2.06447 c -0.16236,0 -0.39078,0.0615 -0.34623,0.0615 -0.41539,0.29536 -0.62887,0.36858 -0.87127,0.4005 -0.16087,0.0212 -0.42468,0.0186 -0.58704,0.0186 h -2.17506 c -0.162362,0 -0.29404,-0.13168 -0.29404,-0.29404 0,-0.10306 -0.131679,-0.18655 -0.294039,-0.18655 h -1.81746 c -0.16236,0 -0.294039,0.13168 -0.294039,0.29404 v 0.002 c 0,0.16236 -0.131679,0.29404 -0.294039,0.29404 h -1.279509 c -0.16236,0 -0.336101,-0.12473 -0.38809,-0.27854 l -0.01137,-0.0331 c -0.05199,-0.15381 -0.225731,-0.27854 -0.388091,-0.27854 h -2.008662 c -0.16236,0 -0.263039,0.0972 -0.224793,0.21704 0.10869,0.33111 -0.0092,0.37311 -0.171566,0.37311 H 88.67934 c -0.16236,0 -0.253209,-0.12479 -0.202572,-0.27905 0.017,-0.0518 0.06201,-0.19123 0.100252,-0.3111 h -2.287199 c -0.162359,0 -0.336101,0.12473 -0.38809,0.27854 l -0.01137,0.0331 c -0.05199,0.15381 -0.225731,0.27854 -0.38809,0.27854 h -1.279509 c -0.16236,0 -0.294039,-0.13168 -0.294039,-0.29404 v -0.002 c 0,-0.16236 -0.131679,-0.29404 -0.294039,-0.29404 h -1.81746 c -0.16236,0 -0.294039,0.13168 -0.294039,0.29404 v 0.002 c 0,0.16236 -0.131679,0.29404 -0.294039,0.29404 H 77.31569 c -0.16236,0 -0.294039,-0.13168 -0.294039,-0.29404 v -0.002 c 0,-0.16236 -0.131679,-0.29404 -0.294039,-0.29404 h -1.817977 c -0.162359,0 -0.294038,0.13168 -0.294038,0.29404 v 0.002 c 0,0.16236 -0.131679,0.29404 -0.294039,0.29404 h -5.232756 c -0.16236,0 -0.294039,-0.13168 -0.294039,-0.29404 0,-0.0266 -0.131679,-0.0481 -0.294039,-0.0481 h -1.740462 c -0.16236,0 -0.294039,0.13168 -0.294039,0.29404 0,0.0266 -0.131679,0.0481 -0.294039,0.0481 h -1.82056 c -0.16236,0 -0.366125,-0.10994 -0.454753,-0.24598 l -0.06356,-0.0977 c -0.08863,-0.13604 -0.291876,-0.2465 -0.454236,-0.2465 h -2.176611 c -0.16236,0 -0.222036,0.11052 -0.133325,0.2465 l 0.06356,0.0977 c 0.08871,0.13598 0.02904,0.24598 -0.133326,0.24598 h -1.529105 c -0.16236,0 -0.221502,-0.10981 -0.132292,-0.24546 l 0.0646,-0.0987 c 0.08921,-0.13566 0.03007,-0.24598 -0.132292,-0.24598 h -2.183329 c -0.16236,0 -0.365875,0.11011 -0.454753,0.24598 l -0.06459,0.0982 c -0.08888,0.13587 -0.292393,0.24598 -0.454753,0.24598 h -2.449463 c -0.16236,0 -0.210527,-0.10173 -0.113688,-0.23203 0.02806,-0.0378 0.05601,-0.0758 0.0832,-0.1142 0.09385,-0.13246 0.03213,-0.24392 -0.130225,-0.24392 h -2.566768 c -0.16236,0 -0.404848,0.0713 -0.54777,0.14831 -0.02451,0.0132 -0.04901,0.0266 -0.0739,0.0393 -0.144552,0.0738 -0.388608,0.17456 -0.54312,0.22427 -0.281251,0.0905 -0.577915,0.14656 -0.889868,0.16795 -0.161964,0.0111 -0.425092,0.0111 -0.587044,0 -0.315178,-0.0215 -0.616891,-0.078 -0.904855,-0.1695 -0.154715,-0.0491 -0.398765,-0.15011 -0.542602,-0.22531 -0.02176,-0.0114 -0.04311,-0.0229 -0.0646,-0.0346 -0.142369,-0.078 -0.384376,-0.15038 -0.546736,-0.15038 h -2.565735 c -0.16236,0 -0.2244,0.11198 -0.131258,0.24495 0.02641,0.0377 0.05288,0.0751 0.0801,0.11214 0.09604,0.1309 0.04764,0.23306 -0.114721,0.23306 h -2.744019 c -0.16236,0 -0.359174,-0.11383 -0.439766,-0.25477 l -0.04599,-0.0801 c -0.08059,-0.14094 -0.277407,-0.25528 -0.439767,-0.25528 z m 55.708744,1.50689 c -0.162359,0 -0.252829,0.12536 -0.202054,0.27957 l 0.01034,0.0315 c 0.05078,0.15421 -0.03969,0.27905 -0.202055,0.27905 H 88.18377 c -0.16236,0 -0.253225,-0.12479 -0.202572,-0.27905 l 0.01085,-0.0315 c 0.05065,-0.15426 -0.04021,-0.27906 -0.202572,-0.27906 H 85.77978 c -0.16236,0 -0.336102,0.12421 -0.38809,0.27802 l -0.01137,0.0336 c -0.05199,0.15381 -0.22573,0.27854 -0.38809,0.27854 h -0.769462 c -0.16236,0 -0.294039,-0.13168 -0.294039,-0.29404 v -0.002 c 0,-0.16236 -0.131679,-0.29404 -0.294039,-0.29404 h -1.81746 c -0.16236,0 -0.294039,0.13168 -0.294039,0.29404 v 0.002 c 0,0.16236 -0.131679,0.29404 -0.294039,0.29404 h -3.913456 c -0.16236,0 -0.294039,-0.13168 -0.294039,-0.29404 v -0.002 c 0,-0.16236 -0.131679,-0.29404 -0.294039,-0.29404 h -1.817977 c -0.162359,0 -0.294038,0.13168 -0.294038,0.29404 v 0.002 c 0,0.16236 -0.131679,0.29404 -0.294039,0.29404 h -5.232756 c -0.16236,0 -0.294039,-0.13168 -0.294039,-0.29404 v -0.002 c 0,-0.16236 -0.131679,-0.29404 -0.294039,-0.29404 h -1.740462 c -0.16236,0 -0.294039,0.13168 -0.294039,0.29404 v 0.002 c 0,0.16236 -0.131679,0.29404 -0.294039,0.29404 h -0.839225 c -0.16236,0 -0.366127,-0.11046 -0.454753,-0.2465 l -0.06305,-0.0977 c -0.08863,-0.13604 -0.292393,-0.24598 -0.454752,-0.24598 h -2.175061 c -0.16236,0 -0.222036,0.11 -0.133326,0.24598 l 0.06356,0.0977 c 0.08871,0.13598 0.02903,0.2465 -0.133325,0.2465 h -3.503145 c -0.16236,0 -0.221501,-0.11032 -0.132292,-0.24598 l 0.0646,-0.0987 c 0.08921,-0.13566 0.03007,-0.24547 -0.132292,-0.24547 h -2.178162 c -0.162359,0 -0.365876,0.11011 -0.454752,0.24598 l -0.0646,0.0982 c -0.08888,0.13587 -0.292392,0.24598 -0.454752,0.24598 h -3.378089 c -0.16236,0 -0.176022,-0.0586 -0.03359,-0.13643 0.161065,-0.0881 0.317791,-0.18165 0.468188,-0.28267 0.13473,-0.0905 0.107067,-0.17105 -0.05529,-0.17105 h -7.088456 c -0.16236,0 -0.189351,0.0801 -0.05426,0.17002 0.152524,0.10163 0.311124,0.19566 0.473873,0.28422 0.142584,0.0776 0.128767,0.13591 -0.03359,0.13591 h -3.803385 c -0.16236,0 -0.359598,-0.11439 -0.440284,-0.25528 l -0.04547,-0.0801 c -0.08069,-0.14089 -0.277923,-0.25477 -0.440283,-0.25477 h -2.09858 c -0.16236,0 -0.229658,0.11463 -0.150378,0.25632 l 0.04289,0.077 c 0.07928,0.14169 0.01198,0.25683 -0.150378,0.25683 h -3.195154 c -0.16236,0 -0.294039,-0.13168 -0.294039,-0.29404 v -0.002 c 0,-0.16236 -0.131679,-0.29404 -0.294039,-0.29404 H 32.73857 c -0.16236,0 -0.294039,0.13168 -0.294039,0.29404 v 0.002 c 0,0.16236 -0.131679,0.29404 -0.294039,0.29404 h -7.079671 c -0.16236,0 -0.294039,-0.13168 -0.294039,-0.29404 v -0.002 c 0,-0.16236 -0.131679,-0.29404 -0.294039,-0.29404 h -1.338419 -0.479558 -0.294038 v 0.29404 0.002 0.29404 0.25115 0.22841 h 0.773596 1.338419 c 0.16236,0 0.294039,-0.10226 0.294039,-0.22841 h 7.37371 c 0.16236,0 0.294039,0.10226 0.294039,0.22841 h 2.112016 c 0.16236,0 0.294039,-0.10226 0.294039,-0.22841 h 3.629753 c 0.162359,0 0.351184,0.10226 0.421679,0.22841 h 2.406572 c 0.16236,0 0.235504,-0.10226 0.163297,-0.22841 h 4.503601 c 0.16236,0 0.416757,0.0477 0.571025,0.0982 0.550526,0.18046 1.132406,0.28488 1.74718,0.31006 0.162214,0.007 0.425866,0.007 0.588078,0 0.614774,-0.0252 1.196652,-0.1296 1.74718,-0.31006 0.154269,-0.0506 0.408665,-0.0982 0.571025,-0.0982 h 3.762561 c 0.162359,0 0.227176,0.10226 0.144694,0.22841 l 2.468583,-5.2e-4 c 0.16236,-4e-5 0.361133,-0.10203 0.4439,-0.22789 h 4.126363 c 0.16236,0 0.360672,0.10226 0.442867,0.22841 h 2.468584 c 0.16236,0 0.227407,-0.10226 0.14521,-0.22841 h 0.96945 c 0.16236,0 0.294039,0.10226 0.294039,0.22841 h 2.034501 c 0.16236,0 0.294039,-0.10226 0.294039,-0.22841 h 5.526795 c 0.16236,0 0.294039,0.10226 0.294039,0.22841 h 2.112015 c 0.16236,0 0.294039,-0.10226 0.294039,-0.22841 h 4.207495 c 0.16236,0 0.294039,0.10226 0.294039,0.22841 h 2.111499 c 0.16236,0 0.294039,-0.10226 0.294039,-0.22841 h 0.978235 c 0.16236,0 0.259567,0.10226 0.217041,0.22841 h 2.314071 c 0.16236,0 0.327586,-0.10226 0.368969,-0.22841 h 5.345927 c 0.16236,0 0.327587,0.10226 0.36897,0.22841 h 2.329057 c 0.16236,0 0.259567,-0.10226 0.217041,-0.22841 h 0.978235 c 0.16236,0 0.294039,0.10226 0.294039,0.22841 h 4.595068 c 0.16236,0 0.42584,4.8e-4 0.58808,-0.005 0.42479,-0.0157 0.81746,-0.0662 1.17925,-0.14935 0.15821,-0.0364 0.4159,-0.0739 0.57826,-0.0739 h 3.39514 c 0.16236,0 0.29404,0.10226 0.29404,0.22841 h 0.98806 1.04593 0.29404 v -0.29404 -0.48163 -0.29404 h -0.29404 -1.04593 -0.69402 c -0.16236,0 -0.29404,0.13168 -0.29404,0.29404 v 0.002 c 0,0.16236 -0.13168,0.29404 -0.29404,0.29404 h -2.75487 c -0.16236,0 -0.17437,-0.0559 -0.0326,-0.13488 0.0885,-0.0493 0.17422,-0.101 0.25683,-0.15658 0.13461,-0.0906 0.28305,-0.23523 0.3514,-0.29869 h -7.862569 c -0.16236,0 -0.294039,0.13168 -0.294039,0.29404 v 0.002 c 0,0.16236 -0.131679,0.29404 -0.294039,0.29404 h -0.769462 c -0.16236,0 -0.336102,-0.12473 -0.38809,-0.27854 l -0.01137,-0.0336 c -0.05199,-0.15381 -0.22573,-0.27853 -0.38809,-0.27853 z" />
  </g>
</svg>
